<svg width="374" height="226" viewBox="0 0 374 226" fill="none" xmlns="http://www.w3.org/2000/svg">
<path d="M9.24021 193V192.233L12.1209 189.08C12.459 188.71 12.7374 188.389 12.9561 188.116C13.1749 187.841 13.3368 187.582 13.4419 187.341C13.5499 187.097 13.6038 186.841 13.6038 186.574C13.6038 186.267 13.53 186.001 13.3823 185.777C13.2374 185.553 13.0385 185.379 12.7857 185.257C12.5328 185.135 12.2487 185.074 11.9334 185.074C11.5982 185.074 11.3055 185.143 11.0555 185.283C10.8084 185.419 10.6166 185.611 10.4803 185.858C10.3467 186.105 10.28 186.395 10.28 186.727H9.2743C9.2743 186.216 9.39219 185.767 9.62799 185.381C9.86379 184.994 10.1848 184.693 10.5911 184.477C11.0001 184.261 11.459 184.153 11.9675 184.153C12.4788 184.153 12.932 184.261 13.3269 184.477C13.7217 184.693 14.0314 184.984 14.2558 185.351C14.4803 185.717 14.5925 186.125 14.5925 186.574C14.5925 186.895 14.5342 187.209 14.4178 187.516C14.3041 187.82 14.1053 188.159 13.8212 188.534C13.5399 188.906 13.1493 189.361 12.6493 189.898L10.6891 191.994V192.062H14.7459V193H9.24021ZM18.9931 193.119C18.4931 193.119 18.0428 193.02 17.6423 192.821C17.2417 192.622 16.9207 192.349 16.6792 192.003C16.4377 191.656 16.3056 191.261 16.2829 190.818H17.3056C17.3454 191.213 17.5244 191.54 17.8425 191.798C18.1636 192.054 18.5471 192.182 18.9931 192.182C19.3511 192.182 19.6692 192.098 19.9476 191.93C20.2289 191.763 20.4491 191.533 20.6082 191.24C20.7701 190.945 20.8511 190.611 20.8511 190.239C20.8511 189.858 20.7673 189.518 20.5996 189.22C20.4349 188.919 20.2076 188.682 19.9178 188.509C19.628 188.335 19.2971 188.247 18.9249 188.244C18.6579 188.241 18.3837 188.283 18.1025 188.368C17.8212 188.45 17.5897 188.557 17.4079 188.688L16.4192 188.568L16.9476 184.273H21.4817V185.21H17.834L17.5272 187.784H17.5783C17.7573 187.642 17.9817 187.524 18.2516 187.43C18.5215 187.337 18.8028 187.29 19.0954 187.29C19.6295 187.29 20.1053 187.418 20.5229 187.673C20.9434 187.926 21.2729 188.273 21.5116 188.713C21.753 189.153 21.8738 189.656 21.8738 190.222C21.8738 190.778 21.7488 191.276 21.4988 191.713C21.2516 192.148 20.9107 192.491 20.4761 192.744C20.0414 192.994 19.5471 193.119 18.9931 193.119Z" fill="black"/>
<path d="M10.2766 105L14.18 97.2784V97.2102H9.68001V96.2727H15.2709V97.2614L11.3846 105H10.2766ZM19.2294 105.119C18.7294 105.119 18.2791 105.02 17.8786 104.821C17.478 104.622 17.157 104.349 16.9155 104.003C16.674 103.656 16.5419 103.261 16.5192 102.818H17.5419C17.5817 103.213 17.7607 103.54 18.0789 103.798C18.3999 104.054 18.7834 104.182 19.2294 104.182C19.5874 104.182 19.9056 104.098 20.184 103.93C20.4652 103.763 20.6854 103.533 20.8445 103.24C21.0064 102.945 21.0874 102.611 21.0874 102.239C21.0874 101.858 21.0036 101.518 20.836 101.22C20.6712 100.919 20.4439 100.682 20.1541 100.509C19.8644 100.335 19.5334 100.247 19.1613 100.244C18.8942 100.241 18.6201 100.283 18.3388 100.368C18.0576 100.45 17.826 100.557 17.6442 100.688L16.6556 100.568L17.184 96.2727H21.7181V97.2102H18.0703L17.7635 99.7841H17.8147C17.9936 99.642 18.2181 99.5241 18.488 99.4304C18.7578 99.3366 19.0391 99.2898 19.3317 99.2898C19.8658 99.2898 20.3416 99.4176 20.7593 99.6733C21.1797 99.9261 21.5093 100.273 21.7479 100.713C21.9894 101.153 22.1101 101.656 22.1101 102.222C22.1101 102.778 21.9851 103.276 21.7351 103.713C21.488 104.148 21.147 104.491 20.7124 104.744C20.2777 104.994 19.7834 105.119 19.2294 105.119Z" fill="black"/>
<path d="M4.13933 8.27273V17H3.08251V9.38068H3.03137L0.900689 10.7955V9.72159L3.08251 8.27273H4.13933ZM6.40927 17V16.233L9.28995 13.0795C9.62802 12.7102 9.90643 12.3892 10.1252 12.1165C10.3439 11.8409 10.5059 11.5824 10.611 11.3409C10.7189 11.0966 10.7729 10.8409 10.7729 10.5739C10.7729 10.267 10.699 10.0014 10.5513 9.77699C10.4064 9.55256 10.2076 9.37926 9.95472 9.2571C9.70188 9.13494 9.41779 9.07386 9.10245 9.07386C8.76722 9.07386 8.47461 9.14347 8.22461 9.28267C7.97745 9.41903 7.78569 9.6108 7.64933 9.85795C7.5158 10.1051 7.44904 10.3949 7.44904 10.7273H6.44336C6.44336 10.2159 6.56126 9.76705 6.79705 9.38068C7.03285 8.99432 7.35387 8.69318 7.76012 8.47727C8.16921 8.26136 8.62802 8.15341 9.13654 8.15341C9.6479 8.15341 10.101 8.26136 10.4959 8.47727C10.8908 8.69318 11.2005 8.98437 11.4249 9.35085C11.6493 9.71733 11.7615 10.125 11.7615 10.5739C11.7615 10.8949 11.7033 11.2088 11.5868 11.5156C11.4732 11.8196 11.2743 12.1591 10.9902 12.5341C10.709 12.9062 10.3184 13.3608 9.81836 13.8977L7.85813 15.9943V16.0625H11.915V17H6.40927ZM16.1622 17.1193C15.6622 17.1193 15.2119 17.0199 14.8113 16.821C14.4107 16.6222 14.0897 16.3494 13.8482 16.0028C13.6068 15.6562 13.4747 15.2614 13.4519 14.8182H14.4747C14.5144 15.2131 14.6934 15.5398 15.0116 15.7983C15.3326 16.054 15.7161 16.1818 16.1622 16.1818C16.5201 16.1818 16.8383 16.098 17.1167 15.9304C17.398 15.7628 17.6181 15.5327 17.7772 15.2401C17.9392 14.9446 18.0201 14.6108 18.0201 14.2386C18.0201 13.858 17.9363 13.5185 17.7687 13.2202C17.6039 12.919 17.3767 12.6818 17.0869 12.5085C16.7971 12.3352 16.4661 12.2472 16.094 12.2443C15.8269 12.2415 15.5528 12.2827 15.2715 12.3679C14.9903 12.4503 14.7588 12.5568 14.5769 12.6875L13.5883 12.5682L14.1167 8.27273H18.6508V9.21023H15.0031L14.6963 11.7841H14.7474C14.9264 11.642 15.1508 11.5241 15.4207 11.4304C15.6906 11.3366 15.9718 11.2898 16.2644 11.2898C16.7985 11.2898 17.2744 11.4176 17.692 11.6733C18.1125 11.9261 18.442 12.2727 18.6806 12.7131C18.9221 13.1534 19.0428 13.6562 19.0428 14.2216C19.0428 14.7784 18.9178 15.2756 18.6678 15.7131C18.4207 16.1477 18.0798 16.4915 17.6451 16.7443C17.2105 16.9943 16.7161 17.1193 16.1622 17.1193Z" fill="black"/>
<path d="M4.42253 52.2727V61H3.36571V53.3807H3.31457L1.18389 54.7955V53.7216L3.36571 52.2727H4.42253ZM9.53906 61.1193C8.89702 61.1193 8.35014 60.9446 7.89844 60.5952C7.44673 60.2429 7.10156 59.733 6.86293 59.0653C6.62429 58.3949 6.50497 57.5852 6.50497 56.6364C6.50497 55.6932 6.62429 54.8878 6.86293 54.2202C7.1044 53.5497 7.45099 53.0384 7.9027 52.6861C8.35724 52.331 8.9027 52.1534 9.53906 52.1534C10.1754 52.1534 10.7195 52.331 11.1712 52.6861C11.6257 53.0384 11.9723 53.5497 12.2109 54.2202C12.4524 54.8878 12.5732 55.6932 12.5732 56.6364C12.5732 57.5852 12.4538 58.3949 12.2152 59.0653C11.9766 59.733 11.6314 60.2429 11.1797 60.5952C10.728 60.9446 10.1811 61.1193 9.53906 61.1193ZM9.53906 60.1818C10.1754 60.1818 10.6697 59.875 11.022 59.2614C11.3743 58.6477 11.5504 57.7727 11.5504 56.6364C11.5504 55.8807 11.4695 55.2372 11.3075 54.706C11.1484 54.1747 10.9183 53.7699 10.6172 53.4915C10.3189 53.2131 9.95952 53.0739 9.53906 53.0739C8.90838 53.0739 8.41548 53.3849 8.06037 54.0071C7.70526 54.6264 7.5277 55.5028 7.5277 56.6364C7.5277 57.392 7.60724 58.0341 7.76634 58.5625C7.92543 59.0909 8.15412 59.4929 8.45241 59.7685C8.75355 60.044 9.11577 60.1818 9.53906 60.1818ZM16.7991 61.1193C16.157 61.1193 15.6101 60.9446 15.1584 60.5952C14.7067 60.2429 14.3616 59.733 14.1229 59.0653C13.8843 58.3949 13.765 57.5852 13.765 56.6364C13.765 55.6932 13.8843 54.8878 14.1229 54.2202C14.3644 53.5497 14.711 53.0384 15.1627 52.6861C15.6172 52.331 16.1627 52.1534 16.7991 52.1534C17.4354 52.1534 17.9795 52.331 18.4312 52.6861C18.8857 53.0384 19.2323 53.5497 19.4709 54.2202C19.7124 54.8878 19.8332 55.6932 19.8332 56.6364C19.8332 57.5852 19.7138 58.3949 19.4752 59.0653C19.2366 59.733 18.8914 60.2429 18.4397 60.5952C17.988 60.9446 17.4411 61.1193 16.7991 61.1193ZM16.7991 60.1818C17.4354 60.1818 17.9297 59.875 18.282 59.2614C18.6343 58.6477 18.8104 57.7727 18.8104 56.6364C18.8104 55.8807 18.7295 55.2372 18.5675 54.706C18.4084 54.1747 18.1783 53.7699 17.8772 53.4915C17.5789 53.2131 17.2195 53.0739 16.7991 53.0739C16.1684 53.0739 15.6755 53.3849 15.3204 54.0071C14.9653 54.6264 14.7877 55.5028 14.7877 56.6364C14.7877 57.392 14.8672 58.0341 15.0263 58.5625C15.1854 59.0909 15.4141 59.4929 15.7124 59.7685C16.0136 60.044 16.3758 60.1818 16.7991 60.1818Z" fill="black"/>
<path d="M11.8503 149.119C11.3503 149.119 10.9 149.02 10.4994 148.821C10.0989 148.622 9.77785 148.349 9.53637 148.003C9.29489 147.656 9.16279 147.261 9.14006 146.818H10.1628C10.2026 147.213 10.3815 147.54 10.6997 147.798C11.0207 148.054 11.4043 148.182 11.8503 148.182C12.2082 148.182 12.5264 148.098 12.8048 147.93C13.0861 147.763 13.3063 147.533 13.4653 147.24C13.6273 146.945 13.7082 146.611 13.7082 146.239C13.7082 145.858 13.6244 145.518 13.4568 145.22C13.2921 144.919 13.0648 144.682 12.775 144.509C12.4852 144.335 12.1543 144.247 11.7821 144.244C11.5151 144.241 11.2409 144.283 10.9597 144.368C10.6784 144.45 10.4469 144.557 10.2651 144.688L9.27643 144.568L9.80484 140.273H14.3389V141.21H10.6912L10.3844 143.784H10.4355C10.6145 143.642 10.8389 143.524 11.1088 143.43C11.3787 143.337 11.66 143.29 11.9526 143.29C12.4867 143.29 12.9625 143.418 13.3801 143.673C13.8006 143.926 14.1301 144.273 14.3688 144.713C14.6102 145.153 14.731 145.656 14.731 146.222C14.731 146.778 14.606 147.276 14.356 147.713C14.1088 148.148 13.7679 148.491 13.3332 148.744C12.8986 148.994 12.4043 149.119 11.8503 149.119ZM19.0304 149.119C18.3883 149.119 17.8415 148.945 17.3898 148.595C16.9381 148.243 16.5929 147.733 16.3543 147.065C16.1156 146.395 15.9963 145.585 15.9963 144.636C15.9963 143.693 16.1156 142.888 16.3543 142.22C16.5957 141.55 16.9423 141.038 17.394 140.686C17.8486 140.331 18.394 140.153 19.0304 140.153C19.6668 140.153 20.2108 140.331 20.6625 140.686C21.117 141.038 21.4636 141.55 21.7023 142.22C21.9437 142.888 22.0645 143.693 22.0645 144.636C22.0645 145.585 21.9452 146.395 21.7065 147.065C21.4679 147.733 21.1227 148.243 20.671 148.595C20.2193 148.945 19.6724 149.119 19.0304 149.119ZM19.0304 148.182C19.6668 148.182 20.1611 147.875 20.5133 147.261C20.8656 146.648 21.0418 145.773 21.0418 144.636C21.0418 143.881 20.9608 143.237 20.7989 142.706C20.6398 142.175 20.4097 141.77 20.1085 141.491C19.8102 141.213 19.4508 141.074 19.0304 141.074C18.3997 141.074 17.9068 141.385 17.5517 142.007C17.1966 142.626 17.019 143.503 17.019 144.636C17.019 145.392 17.0986 146.034 17.2577 146.562C17.4168 147.091 17.6454 147.493 17.9437 147.768C18.2449 148.044 18.6071 148.182 19.0304 148.182Z" fill="black"/>
<path d="M70.8503 222.119C70.3503 222.119 69.9 222.02 69.4994 221.821C69.0989 221.622 68.7778 221.349 68.5364 221.003C68.2949 220.656 68.1628 220.261 68.1401 219.818H69.1628C69.2026 220.213 69.3815 220.54 69.6997 220.798C70.0207 221.054 70.4043 221.182 70.8503 221.182C71.2082 221.182 71.5264 221.098 71.8048 220.93C72.0861 220.763 72.3063 220.533 72.4653 220.24C72.6273 219.945 72.7082 219.611 72.7082 219.239C72.7082 218.858 72.6244 218.518 72.4568 218.22C72.2921 217.919 72.0648 217.682 71.775 217.509C71.4852 217.335 71.1543 217.247 70.7821 217.244C70.5151 217.241 70.2409 217.283 69.9597 217.368C69.6784 217.45 69.4469 217.557 69.2651 217.688L68.2764 217.568L68.8048 213.273H73.3389V214.21H69.6912L69.3844 216.784H69.4355C69.6145 216.642 69.8389 216.524 70.1088 216.43C70.3787 216.337 70.66 216.29 70.9526 216.29C71.4867 216.29 71.9625 216.418 72.3801 216.673C72.8006 216.926 73.1301 217.273 73.3688 217.713C73.6102 218.153 73.731 218.656 73.731 219.222C73.731 219.778 73.606 220.276 73.356 220.713C73.1088 221.148 72.7679 221.491 72.3332 221.744C71.8986 221.994 71.4043 222.119 70.8503 222.119ZM78.0304 222.119C77.3883 222.119 76.8415 221.945 76.3898 221.595C75.9381 221.243 75.5929 220.733 75.3543 220.065C75.1156 219.395 74.9963 218.585 74.9963 217.636C74.9963 216.693 75.1156 215.888 75.3543 215.22C75.5957 214.55 75.9423 214.038 76.394 213.686C76.8486 213.331 77.394 213.153 78.0304 213.153C78.6668 213.153 79.2108 213.331 79.6625 213.686C80.117 214.038 80.4636 214.55 80.7023 215.22C80.9437 215.888 81.0645 216.693 81.0645 217.636C81.0645 218.585 80.9452 219.395 80.7065 220.065C80.4679 220.733 80.1227 221.243 79.671 221.595C79.2193 221.945 78.6724 222.119 78.0304 222.119ZM78.0304 221.182C78.6668 221.182 79.1611 220.875 79.5133 220.261C79.8656 219.648 80.0418 218.773 80.0418 217.636C80.0418 216.881 79.9608 216.237 79.7989 215.706C79.6398 215.175 79.4097 214.77 79.1085 214.491C78.8102 214.213 78.4508 214.074 78.0304 214.074C77.3997 214.074 76.9068 214.385 76.5517 215.007C76.1966 215.626 76.019 216.503 76.019 217.636C76.019 218.392 76.0986 219.034 76.2577 219.562C76.4168 220.091 76.6454 220.493 76.9437 220.768C77.2449 221.044 77.6071 221.182 78.0304 221.182Z" fill="black"/>
<path d="M197.022 213.273V222H195.965V214.381H195.914L193.784 215.795V214.722L195.965 213.273H197.022ZM202.019 222.119C201.519 222.119 201.069 222.02 200.669 221.821C200.268 221.622 199.947 221.349 199.705 221.003C199.464 220.656 199.332 220.261 199.309 219.818H200.332C200.372 220.213 200.551 220.54 200.869 220.798C201.19 221.054 201.573 221.182 202.019 221.182C202.377 221.182 202.695 221.098 202.974 220.93C203.255 220.763 203.475 220.533 203.634 220.24C203.796 219.945 203.877 219.611 203.877 219.239C203.877 218.858 203.794 218.518 203.626 218.22C203.461 217.919 203.234 217.682 202.944 217.509C202.654 217.335 202.323 217.247 201.951 217.244C201.684 217.241 201.41 217.283 201.129 217.368C200.847 217.45 200.616 217.557 200.434 217.688L199.445 217.568L199.974 213.273H204.508V214.21H200.86L200.553 216.784H200.605C200.784 216.642 201.008 216.524 201.278 216.43C201.548 216.337 201.829 216.29 202.122 216.29C202.656 216.29 203.132 216.418 203.549 216.673C203.97 216.926 204.299 217.273 204.538 217.713C204.779 218.153 204.9 218.656 204.9 219.222C204.9 219.778 204.775 220.276 204.525 220.713C204.278 221.148 203.937 221.491 203.502 221.744C203.068 221.994 202.573 222.119 202.019 222.119ZM209.199 222.119C208.557 222.119 208.011 221.945 207.559 221.595C207.107 221.243 206.762 220.733 206.523 220.065C206.285 219.395 206.165 218.585 206.165 217.636C206.165 216.693 206.285 215.888 206.523 215.22C206.765 214.55 207.111 214.038 207.563 213.686C208.018 213.331 208.563 213.153 209.199 213.153C209.836 213.153 210.38 213.331 210.832 213.686C211.286 214.038 211.633 214.55 211.871 215.22C212.113 215.888 212.234 216.693 212.234 217.636C212.234 218.585 212.114 219.395 211.876 220.065C211.637 220.733 211.292 221.243 210.84 221.595C210.388 221.945 209.841 222.119 209.199 222.119ZM209.199 221.182C209.836 221.182 210.33 220.875 210.682 220.261C211.035 219.648 211.211 218.773 211.211 217.636C211.211 216.881 211.13 216.237 210.968 215.706C210.809 215.175 210.579 214.77 210.278 214.491C209.979 214.213 209.62 214.074 209.199 214.074C208.569 214.074 208.076 214.385 207.721 215.007C207.366 215.626 207.188 216.503 207.188 217.636C207.188 218.392 207.268 219.034 207.427 219.562C207.586 220.091 207.815 220.493 208.113 220.768C208.414 221.044 208.776 221.182 209.199 221.182Z" fill="black"/>
<path d="M322.11 222V221.233L324.991 218.08C325.329 217.71 325.607 217.389 325.826 217.116C326.045 216.841 326.207 216.582 326.312 216.341C326.42 216.097 326.474 215.841 326.474 215.574C326.474 215.267 326.4 215.001 326.252 214.777C326.107 214.553 325.909 214.379 325.656 214.257C325.403 214.135 325.119 214.074 324.803 214.074C324.468 214.074 324.176 214.143 323.926 214.283C323.678 214.419 323.487 214.611 323.35 214.858C323.217 215.105 323.15 215.395 323.15 215.727H322.144C322.144 215.216 322.262 214.767 322.498 214.381C322.734 213.994 323.055 213.693 323.461 213.477C323.87 213.261 324.329 213.153 324.837 213.153C325.349 213.153 325.802 213.261 326.197 213.477C326.592 213.693 326.901 213.984 327.126 214.351C327.35 214.717 327.462 215.125 327.462 215.574C327.462 215.895 327.404 216.209 327.288 216.516C327.174 216.82 326.975 217.159 326.691 217.534C326.41 217.906 326.019 218.361 325.519 218.898L323.559 220.994V221.062H327.616V222H322.11ZM331.863 222.119C331.363 222.119 330.913 222.02 330.512 221.821C330.112 221.622 329.791 221.349 329.549 221.003C329.308 220.656 329.176 220.261 329.153 219.818H330.176C330.215 220.213 330.394 220.54 330.713 220.798C331.034 221.054 331.417 221.182 331.863 221.182C332.221 221.182 332.539 221.098 332.818 220.93C333.099 220.763 333.319 220.533 333.478 220.24C333.64 219.945 333.721 219.611 333.721 219.239C333.721 218.858 333.637 218.518 333.47 218.22C333.305 217.919 333.078 217.682 332.788 217.509C332.498 217.335 332.167 217.247 331.795 217.244C331.528 217.241 331.254 217.283 330.972 217.368C330.691 217.45 330.46 217.557 330.278 217.688L329.289 217.568L329.818 213.273H334.352V214.21H330.704L330.397 216.784H330.448C330.627 216.642 330.852 216.524 331.122 216.43C331.392 216.337 331.673 216.29 331.965 216.29C332.499 216.29 332.975 216.418 333.393 216.673C333.813 216.926 334.143 217.273 334.382 217.713C334.623 218.153 334.744 218.656 334.744 219.222C334.744 219.778 334.619 220.276 334.369 220.713C334.122 221.148 333.781 221.491 333.346 221.744C332.911 221.994 332.417 222.119 331.863 222.119ZM339.043 222.119C338.401 222.119 337.854 221.945 337.403 221.595C336.951 221.243 336.606 220.733 336.367 220.065C336.128 219.395 336.009 218.585 336.009 217.636C336.009 216.693 336.128 215.888 336.367 215.22C336.609 214.55 336.955 214.038 337.407 213.686C337.861 213.331 338.407 213.153 339.043 213.153C339.68 213.153 340.224 213.331 340.675 213.686C341.13 214.038 341.476 214.55 341.715 215.22C341.957 215.888 342.077 216.693 342.077 217.636C342.077 218.585 341.958 219.395 341.719 220.065C341.481 220.733 341.136 221.243 340.684 221.595C340.232 221.945 339.685 222.119 339.043 222.119ZM339.043 221.182C339.68 221.182 340.174 220.875 340.526 220.261C340.878 219.648 341.055 218.773 341.055 217.636C341.055 216.881 340.974 216.237 340.812 215.706C340.653 215.175 340.422 214.77 340.121 214.491C339.823 214.213 339.464 214.074 339.043 214.074C338.413 214.074 337.92 214.385 337.565 215.007C337.209 215.626 337.032 216.503 337.032 217.636C337.032 218.392 337.111 219.034 337.27 219.562C337.43 220.091 337.658 220.493 337.957 220.768C338.258 221.044 338.62 221.182 339.043 221.182Z" fill="black"/>
<path d="M258.011 222V221.233L260.891 218.08C261.229 217.71 261.508 217.389 261.727 217.116C261.945 216.841 262.107 216.582 262.212 216.341C262.32 216.097 262.374 215.841 262.374 215.574C262.374 215.267 262.3 215.001 262.153 214.777C262.008 214.553 261.809 214.379 261.556 214.257C261.303 214.135 261.019 214.074 260.704 214.074C260.369 214.074 260.076 214.143 259.826 214.283C259.579 214.419 259.387 214.611 259.251 214.858C259.117 215.105 259.05 215.395 259.05 215.727H258.045C258.045 215.216 258.163 214.767 258.398 214.381C258.634 213.994 258.955 213.693 259.361 213.477C259.771 213.261 260.229 213.153 260.738 213.153C261.249 213.153 261.702 213.261 262.097 213.477C262.492 213.693 262.802 213.984 263.026 214.351C263.251 214.717 263.363 215.125 263.363 215.574C263.363 215.895 263.305 216.209 263.188 216.516C263.075 216.82 262.876 217.159 262.592 217.534C262.31 217.906 261.92 218.361 261.42 218.898L259.459 220.994V221.062H263.516V222H258.011ZM267.883 222.119C267.241 222.119 266.694 221.945 266.242 221.595C265.79 221.243 265.445 220.733 265.207 220.065C264.968 219.395 264.849 218.585 264.849 217.636C264.849 216.693 264.968 215.888 265.207 215.22C265.448 214.55 265.795 214.038 266.246 213.686C266.701 213.331 267.246 213.153 267.883 213.153C268.519 213.153 269.063 213.331 269.515 213.686C269.969 214.038 270.316 214.55 270.555 215.22C270.796 215.888 270.917 216.693 270.917 217.636C270.917 218.585 270.798 219.395 270.559 220.065C270.32 220.733 269.975 221.243 269.523 221.595C269.072 221.945 268.525 222.119 267.883 222.119ZM267.883 221.182C268.519 221.182 269.013 220.875 269.366 220.261C269.718 219.648 269.894 218.773 269.894 217.636C269.894 216.881 269.813 216.237 269.651 215.706C269.492 215.175 269.262 214.77 268.961 214.491C268.663 214.213 268.303 214.074 267.883 214.074C267.252 214.074 266.759 214.385 266.404 215.007C266.049 215.626 265.871 216.503 265.871 217.636C265.871 218.392 265.951 219.034 266.11 219.562C266.269 220.091 266.498 220.493 266.796 220.768C267.097 221.044 267.46 221.182 267.883 221.182ZM275.143 222.119C274.501 222.119 273.954 221.945 273.502 221.595C273.05 221.243 272.705 220.733 272.467 220.065C272.228 219.395 272.109 218.585 272.109 217.636C272.109 216.693 272.228 215.888 272.467 215.22C272.708 214.55 273.055 214.038 273.506 213.686C273.961 213.331 274.506 213.153 275.143 213.153C275.779 213.153 276.323 213.331 276.775 213.686C277.229 214.038 277.576 214.55 277.815 215.22C278.056 215.888 278.177 216.693 278.177 217.636C278.177 218.585 278.058 219.395 277.819 220.065C277.58 220.733 277.235 221.243 276.783 221.595C276.332 221.945 275.785 222.119 275.143 222.119ZM275.143 221.182C275.779 221.182 276.273 220.875 276.626 220.261C276.978 219.648 277.154 218.773 277.154 217.636C277.154 216.881 277.073 216.237 276.911 215.706C276.752 215.175 276.522 214.77 276.221 214.491C275.923 214.213 275.563 214.074 275.143 214.074C274.512 214.074 274.019 214.385 273.664 215.007C273.309 215.626 273.131 216.503 273.131 217.636C273.131 218.392 273.211 219.034 273.37 219.562C273.529 220.091 273.758 220.493 274.056 220.768C274.357 221.044 274.72 221.182 275.143 221.182Z" fill="black"/>
<path d="M134.423 213.273V222H133.366V214.381H133.315L131.184 215.795V214.722L133.366 213.273H134.423ZM139.539 222.119C138.897 222.119 138.35 221.945 137.898 221.595C137.447 221.243 137.102 220.733 136.863 220.065C136.624 219.395 136.505 218.585 136.505 217.636C136.505 216.693 136.624 215.888 136.863 215.22C137.104 214.55 137.451 214.038 137.903 213.686C138.357 213.331 138.903 213.153 139.539 213.153C140.175 213.153 140.719 213.331 141.171 213.686C141.626 214.038 141.972 214.55 142.211 215.22C142.452 215.888 142.573 216.693 142.573 217.636C142.573 218.585 142.454 219.395 142.215 220.065C141.977 220.733 141.631 221.243 141.18 221.595C140.728 221.945 140.181 222.119 139.539 222.119ZM139.539 221.182C140.175 221.182 140.67 220.875 141.022 220.261C141.374 219.648 141.55 218.773 141.55 217.636C141.55 216.881 141.469 216.237 141.308 215.706C141.148 215.175 140.918 214.77 140.617 214.491C140.319 214.213 139.96 214.074 139.539 214.074C138.908 214.074 138.415 214.385 138.06 215.007C137.705 215.626 137.528 216.503 137.528 217.636C137.528 218.392 137.607 219.034 137.766 219.562C137.925 220.091 138.154 220.493 138.452 220.768C138.754 221.044 139.116 221.182 139.539 221.182ZM146.799 222.119C146.157 222.119 145.61 221.945 145.158 221.595C144.707 221.243 144.362 220.733 144.123 220.065C143.884 219.395 143.765 218.585 143.765 217.636C143.765 216.693 143.884 215.888 144.123 215.22C144.364 214.55 144.711 214.038 145.163 213.686C145.617 213.331 146.163 213.153 146.799 213.153C147.435 213.153 147.979 213.331 148.431 213.686C148.886 214.038 149.232 214.55 149.471 215.22C149.712 215.888 149.833 216.693 149.833 217.636C149.833 218.585 149.714 219.395 149.475 220.065C149.237 220.733 148.891 221.243 148.44 221.595C147.988 221.945 147.441 222.119 146.799 222.119ZM146.799 221.182C147.435 221.182 147.93 220.875 148.282 220.261C148.634 219.648 148.81 218.773 148.81 217.636C148.81 216.881 148.729 216.237 148.568 215.706C148.408 215.175 148.178 214.77 147.877 214.491C147.579 214.213 147.22 214.074 146.799 214.074C146.168 214.074 145.675 214.385 145.32 215.007C144.965 215.626 144.788 216.503 144.788 217.636C144.788 218.392 144.867 219.034 145.026 219.562C145.185 220.091 145.414 220.493 145.712 220.768C146.014 221.044 146.376 221.182 146.799 221.182Z" fill="black"/>
<line x1="39" y1="0.5" x2="374" y2="0.5" stroke="black" stroke-opacity="0.2"/>
<line x1="39" y1="28.5" x2="374" y2="28.5" stroke="black" stroke-opacity="0.2"/>
<line x1="39" y1="56.5" x2="374" y2="56.5" stroke="black" stroke-opacity="0.2"/>
<line x1="39" y1="84.5" x2="374" y2="84.5" stroke="black" stroke-opacity="0.2"/>
<line x1="39" y1="112.5" x2="374" y2="112.5" stroke="black" stroke-opacity="0.2"/>
<line x1="39" y1="140.5" x2="374" y2="140.5" stroke="black" stroke-opacity="0.2"/>
<line x1="39" y1="168.5" x2="374" y2="168.5" stroke="black" stroke-opacity="0.2"/>
<line x1="39" y1="196.5" x2="374" y2="196.5" stroke="black" stroke-opacity="0.2"/>
<rect x="51" y="58" width="16" height="138" fill="#1D4184"/>
<rect x="83" y="34" width="16" height="162" fill="#1D4184"/>
<rect x="115" y="53" width="16" height="143" fill="#1D4184"/>
<rect x="147" y="34" width="16" height="162" fill="#1D4184"/>
<rect x="179" y="75" width="16" height="121" fill="#1D4184"/>
<rect x="211" y="34" width="16" height="162" fill="#1D4184"/>
<rect x="243" y="96" width="16" height="100" fill="#1D4184"/>
<rect x="275" y="38" width="16" height="158" fill="#1D4184"/>
<rect x="307" y="120" width="16" height="76" fill="#1D4184"/>
<rect x="339" y="34" width="16" height="162" fill="#1D4184"/>
<g filter="url(#filter0_d_7_361)">
<rect x="47" y="34" width="24" height="20" rx="4" fill="white"/>
</g>
<path d="M52.4883 47.1344C51.4219 47.1344 50.6562 46.4743 50.5938 45.5016H51.2852C51.3477 46.111 51.832 46.5172 52.4961 46.5172C53.25 46.5172 53.7539 46.0016 53.7539 45.2282C53.7539 44.4547 53.2461 43.9274 52.5078 43.9274C51.9961 43.9274 51.5742 44.1579 51.3438 44.5602H50.6836L50.9922 41.3649H54.1367V41.9938H51.543L51.3828 43.8024H51.4453C51.7188 43.4821 52.1172 43.3219 52.6367 43.3219C53.707 43.3219 54.457 44.0993 54.457 45.2086C54.457 46.3532 53.6562 47.1344 52.4883 47.1344ZM58.1562 47.0016V45.8336H55.4102V45.193C55.9141 44.2985 56.8086 42.8844 57.8242 41.3649H58.8438V45.2047H59.6445V45.8336H58.8438V47.0016H58.1562ZM56.1289 45.1618V45.2086H58.1602V42.0172H58.1133C57.5352 42.8571 56.8008 44.0211 56.1289 45.1618ZM62.8164 42.6227C62.8164 43.4196 62.3203 43.9821 61.6172 43.9821C60.9141 43.9821 60.4141 43.4196 60.4141 42.6227C60.4141 41.8297 60.9141 41.2672 61.6172 41.2672C62.3203 41.2672 62.8164 41.8258 62.8164 42.6227ZM61.6172 43.4821C61.9609 43.4821 62.1914 43.1383 62.1914 42.6227C62.1914 42.0954 61.9688 41.7672 61.6172 41.7672C61.2656 41.7672 61.0391 42.1032 61.0391 42.6227C61.0391 43.1422 61.2695 43.4821 61.6172 43.4821ZM61.5547 47.0016H60.8359L62.9883 44.0641L64.9648 41.3649H65.6758L63.4883 44.3571L61.5547 47.0016ZM66.0781 45.7399C66.0781 46.5368 65.582 47.0993 64.8789 47.0993C64.1758 47.0993 63.6758 46.5368 63.6758 45.7399C63.6758 44.9469 64.1758 44.3844 64.8789 44.3844C65.582 44.3844 66.0781 44.943 66.0781 45.7399ZM64.8789 46.5993C65.2227 46.5993 65.4531 46.2555 65.4531 45.7399C65.4531 45.2126 65.2305 44.8844 64.8789 44.8844C64.5273 44.8844 64.3008 45.2204 64.3008 45.7399C64.3008 46.2594 64.5312 46.5993 64.8789 46.5993Z" fill="#1D4184"/>
<g filter="url(#filter1_d_7_361)">
<rect x="79" y="10" width="24" height="20" rx="4" fill="white"/>
</g>
<path d="M84.6211 23.1305C83.7734 23.1305 83.125 22.6774 82.7734 21.8493C82.5898 21.4196 82.5 20.9001 82.5 20.279C82.5 18.3415 83.2891 17.2321 84.668 17.2321C85.625 17.2321 86.3359 17.7985 86.5156 18.7047H85.793C85.6406 18.1774 85.2148 17.8571 84.6602 17.8571C83.7422 17.8571 83.2227 18.6696 83.1836 20.1696H83.2461C83.5234 19.6227 84.0742 19.3024 84.7461 19.3024C85.8203 19.3024 86.5977 20.0954 86.5977 21.1891C86.5977 22.3219 85.7773 23.1305 84.6211 23.1305ZM84.6133 22.5133C85.3359 22.5133 85.8867 21.9508 85.8867 21.2126C85.8867 20.443 85.3672 19.9118 84.6211 19.9118C83.875 19.9118 83.3398 20.443 83.3398 21.1891C83.3398 21.943 83.8906 22.5133 84.6133 22.5133ZM90.3047 23.0016V21.8336H87.5586V21.193C88.0625 20.2985 88.957 18.8844 89.9727 17.3649H90.9922V21.2047H91.793V21.8336H90.9922V23.0016H90.3047ZM88.2773 21.1618V21.2086H90.3086V18.0172H90.2617C89.6836 18.8571 88.9492 20.0211 88.2773 21.1618ZM94.9648 18.6227C94.9648 19.4196 94.4688 19.9821 93.7656 19.9821C93.0625 19.9821 92.5625 19.4196 92.5625 18.6227C92.5625 17.8297 93.0625 17.2672 93.7656 17.2672C94.4688 17.2672 94.9648 17.8258 94.9648 18.6227ZM93.7656 19.4821C94.1094 19.4821 94.3398 19.1383 94.3398 18.6227C94.3398 18.0954 94.1172 17.7672 93.7656 17.7672C93.4141 17.7672 93.1875 18.1032 93.1875 18.6227C93.1875 19.1422 93.418 19.4821 93.7656 19.4821ZM93.7031 23.0016H92.9844L95.1367 20.0641L97.1133 17.3649H97.8242L95.6367 20.3571L93.7031 23.0016ZM98.2266 21.7399C98.2266 22.5368 97.7305 23.0993 97.0273 23.0993C96.3242 23.0993 95.8242 22.5368 95.8242 21.7399C95.8242 20.9469 96.3242 20.3844 97.0273 20.3844C97.7305 20.3844 98.2266 20.943 98.2266 21.7399ZM97.0273 22.5993C97.3711 22.5993 97.6016 22.2555 97.6016 21.7399C97.6016 21.2126 97.3789 20.8844 97.0273 20.8844C96.6758 20.8844 96.4492 21.2204 96.4492 21.7399C96.4492 22.2594 96.6797 22.5993 97.0273 22.5993Z" fill="#1D4184"/>
<g filter="url(#filter2_d_7_361)">
<rect x="111" y="29" width="24" height="20" rx="4" fill="white"/>
</g>
<path d="M116.488 42.1344C115.422 42.1344 114.656 41.4743 114.594 40.5016H115.285C115.348 41.111 115.832 41.5172 116.496 41.5172C117.25 41.5172 117.754 41.0016 117.754 40.2282C117.754 39.4547 117.246 38.9274 116.508 38.9274C115.996 38.9274 115.574 39.1579 115.344 39.5602H114.684L114.992 36.3649H118.137V36.9938H115.543L115.383 38.8024H115.445C115.719 38.4821 116.117 38.3219 116.637 38.3219C117.707 38.3219 118.457 39.0993 118.457 40.2086C118.457 41.3532 117.656 42.1344 116.488 42.1344ZM122.156 42.0016V40.8336H119.41V40.193C119.914 39.2985 120.809 37.8844 121.824 36.3649H122.844V40.2047H123.645V40.8336H122.844V42.0016H122.156ZM120.129 40.1618V40.2086H122.16V37.0172H122.113C121.535 37.8571 120.801 39.0211 120.129 40.1618ZM126.816 37.6227C126.816 38.4196 126.32 38.9821 125.617 38.9821C124.914 38.9821 124.414 38.4196 124.414 37.6227C124.414 36.8297 124.914 36.2672 125.617 36.2672C126.32 36.2672 126.816 36.8258 126.816 37.6227ZM125.617 38.4821C125.961 38.4821 126.191 38.1383 126.191 37.6227C126.191 37.0954 125.969 36.7672 125.617 36.7672C125.266 36.7672 125.039 37.1032 125.039 37.6227C125.039 38.1422 125.27 38.4821 125.617 38.4821ZM125.555 42.0016H124.836L126.988 39.0641L128.965 36.3649H129.676L127.488 39.3571L125.555 42.0016ZM130.078 40.7399C130.078 41.5368 129.582 42.0993 128.879 42.0993C128.176 42.0993 127.676 41.5368 127.676 40.7399C127.676 39.9469 128.176 39.3844 128.879 39.3844C129.582 39.3844 130.078 39.943 130.078 40.7399ZM128.879 41.5993C129.223 41.5993 129.453 41.2555 129.453 40.7399C129.453 40.2126 129.23 39.8844 128.879 39.8844C128.527 39.8844 128.301 40.2204 128.301 40.7399C128.301 41.2594 128.531 41.5993 128.879 41.5993Z" fill="#1D4184"/>
<g filter="url(#filter3_d_7_361)">
<rect x="143" y="10" width="24" height="20" rx="4" fill="white"/>
</g>
<path d="M148.621 23.1305C147.773 23.1305 147.125 22.6774 146.773 21.8493C146.59 21.4196 146.5 20.9001 146.5 20.279C146.5 18.3415 147.289 17.2321 148.668 17.2321C149.625 17.2321 150.336 17.7985 150.516 18.7047H149.793C149.641 18.1774 149.215 17.8571 148.66 17.8571C147.742 17.8571 147.223 18.6696 147.184 20.1696H147.246C147.523 19.6227 148.074 19.3024 148.746 19.3024C149.82 19.3024 150.598 20.0954 150.598 21.1891C150.598 22.3219 149.777 23.1305 148.621 23.1305ZM148.613 22.5133C149.336 22.5133 149.887 21.9508 149.887 21.2126C149.887 20.443 149.367 19.9118 148.621 19.9118C147.875 19.9118 147.34 20.443 147.34 21.1891C147.34 21.943 147.891 22.5133 148.613 22.5133ZM153.656 23.1344C152.461 23.1344 151.625 22.4586 151.625 21.4938C151.625 20.7594 152.09 20.1891 152.797 20.0563V19.9938C152.223 19.8376 151.855 19.3493 151.855 18.736C151.855 17.8571 152.602 17.2321 153.656 17.2321C154.711 17.2321 155.457 17.8571 155.457 18.736C155.457 19.3532 155.098 19.8336 154.516 19.9938V20.0563C155.223 20.1891 155.688 20.7594 155.688 21.4938C155.688 22.4586 154.852 23.1344 153.656 23.1344ZM153.656 22.5329C154.438 22.5329 154.977 22.0876 154.977 21.443C154.977 20.7985 154.438 20.3532 153.656 20.3532C152.875 20.3532 152.336 20.7985 152.336 21.443C152.336 22.0876 152.875 22.5329 153.656 22.5329ZM153.656 19.7594C154.32 19.7594 154.766 19.3766 154.766 18.8024C154.766 18.2204 154.324 17.8336 153.656 17.8336C152.988 17.8336 152.547 18.2204 152.547 18.8024C152.547 19.3766 152.992 19.7594 153.656 19.7594ZM158.926 18.6227C158.926 19.4196 158.43 19.9821 157.727 19.9821C157.023 19.9821 156.523 19.4196 156.523 18.6227C156.523 17.8297 157.023 17.2672 157.727 17.2672C158.43 17.2672 158.926 17.8258 158.926 18.6227ZM157.727 19.4821C158.07 19.4821 158.301 19.1383 158.301 18.6227C158.301 18.0954 158.078 17.7672 157.727 17.7672C157.375 17.7672 157.148 18.1032 157.148 18.6227C157.148 19.1422 157.379 19.4821 157.727 19.4821ZM157.664 23.0016H156.945L159.098 20.0641L161.074 17.3649H161.785L159.598 20.3571L157.664 23.0016ZM162.188 21.7399C162.188 22.5368 161.691 23.0993 160.988 23.0993C160.285 23.0993 159.785 22.5368 159.785 21.7399C159.785 20.9469 160.285 20.3844 160.988 20.3844C161.691 20.3844 162.188 20.943 162.188 21.7399ZM160.988 22.5993C161.332 22.5993 161.562 22.2555 161.562 21.7399C161.562 21.2126 161.34 20.8844 160.988 20.8844C160.637 20.8844 160.41 21.2204 160.41 21.7399C160.41 22.2594 160.641 22.5993 160.988 22.5993Z" fill="#1D4184"/>
<g filter="url(#filter4_d_7_361)">
<rect x="175" y="51" width="24" height="20" rx="4" fill="white"/>
</g>
<path d="M181.203 64.0016V62.8336H178.457V62.193C178.961 61.2985 179.855 59.8844 180.871 58.3649H181.891V62.2047H182.691V62.8336H181.891V64.0016H181.203ZM179.176 62.1618V62.2086H181.207V59.0172H181.16C180.582 59.8571 179.848 61.0211 179.176 62.1618ZM186.352 64.0016V62.8336H183.605V62.193C184.109 61.2985 185.004 59.8844 186.02 58.3649H187.039V62.2047H187.84V62.8336H187.039V64.0016H186.352ZM184.324 62.1618V62.2086H186.355V59.0172H186.309C185.73 59.8571 184.996 61.0211 184.324 62.1618ZM191.012 59.6227C191.012 60.4196 190.516 60.9821 189.812 60.9821C189.109 60.9821 188.609 60.4196 188.609 59.6227C188.609 58.8297 189.109 58.2672 189.812 58.2672C190.516 58.2672 191.012 58.8258 191.012 59.6227ZM189.812 60.4821C190.156 60.4821 190.387 60.1383 190.387 59.6227C190.387 59.0954 190.164 58.7672 189.812 58.7672C189.461 58.7672 189.234 59.1032 189.234 59.6227C189.234 60.1422 189.465 60.4821 189.812 60.4821ZM189.75 64.0016H189.031L191.184 61.0641L193.16 58.3649H193.871L191.684 61.3571L189.75 64.0016ZM194.273 62.7399C194.273 63.5368 193.777 64.0993 193.074 64.0993C192.371 64.0993 191.871 63.5368 191.871 62.7399C191.871 61.9469 192.371 61.3844 193.074 61.3844C193.777 61.3844 194.273 61.943 194.273 62.7399ZM193.074 63.5993C193.418 63.5993 193.648 63.2555 193.648 62.7399C193.648 62.2126 193.426 61.8844 193.074 61.8844C192.723 61.8844 192.496 62.2204 192.496 62.7399C192.496 63.2594 192.727 63.5993 193.074 63.5993Z" fill="#1D4184"/>
<g filter="url(#filter5_d_7_361)">
<rect x="207" y="10" width="24" height="20" rx="4" fill="white"/>
</g>
<path d="M212.621 23.1305C211.773 23.1305 211.125 22.6774 210.773 21.8493C210.59 21.4196 210.5 20.9001 210.5 20.279C210.5 18.3415 211.289 17.2321 212.668 17.2321C213.625 17.2321 214.336 17.7985 214.516 18.7047H213.793C213.641 18.1774 213.215 17.8571 212.66 17.8571C211.742 17.8571 211.223 18.6696 211.184 20.1696H211.246C211.523 19.6227 212.074 19.3024 212.746 19.3024C213.82 19.3024 214.598 20.0954 214.598 21.1891C214.598 22.3219 213.777 23.1305 212.621 23.1305ZM212.613 22.5133C213.336 22.5133 213.887 21.9508 213.887 21.2126C213.887 20.443 213.367 19.9118 212.621 19.9118C211.875 19.9118 211.34 20.443 211.34 21.1891C211.34 21.943 211.891 22.5133 212.613 22.5133ZM218.305 23.0016V21.8336H215.559V21.193C216.062 20.2985 216.957 18.8844 217.973 17.3649H218.992V21.2047H219.793V21.8336H218.992V23.0016H218.305ZM216.277 21.1618V21.2086H218.309V18.0172H218.262C217.684 18.8571 216.949 20.0211 216.277 21.1618ZM222.965 18.6227C222.965 19.4196 222.469 19.9821 221.766 19.9821C221.062 19.9821 220.562 19.4196 220.562 18.6227C220.562 17.8297 221.062 17.2672 221.766 17.2672C222.469 17.2672 222.965 17.8258 222.965 18.6227ZM221.766 19.4821C222.109 19.4821 222.34 19.1383 222.34 18.6227C222.34 18.0954 222.117 17.7672 221.766 17.7672C221.414 17.7672 221.188 18.1032 221.188 18.6227C221.188 19.1422 221.418 19.4821 221.766 19.4821ZM221.703 23.0016H220.984L223.137 20.0641L225.113 17.3649H225.824L223.637 20.3571L221.703 23.0016ZM226.227 21.7399C226.227 22.5368 225.73 23.0993 225.027 23.0993C224.324 23.0993 223.824 22.5368 223.824 21.7399C223.824 20.9469 224.324 20.3844 225.027 20.3844C225.73 20.3844 226.227 20.943 226.227 21.7399ZM225.027 22.5993C225.371 22.5993 225.602 22.2555 225.602 21.7399C225.602 21.2126 225.379 20.8844 225.027 20.8844C224.676 20.8844 224.449 21.2204 224.449 21.7399C224.449 22.2594 224.68 22.5993 225.027 22.5993Z" fill="#1D4184"/>
<g filter="url(#filter6_d_7_361)">
<rect x="335" y="10" width="24" height="20" rx="4" fill="white"/>
</g>
<path d="M340.555 23.1344C339.359 23.1344 338.523 22.4586 338.523 21.4938C338.523 20.7594 338.988 20.1891 339.695 20.0563V19.9938C339.121 19.8376 338.754 19.3493 338.754 18.736C338.754 17.8571 339.5 17.2321 340.555 17.2321C341.609 17.2321 342.355 17.8571 342.355 18.736C342.355 19.3532 341.996 19.8336 341.414 19.9938V20.0563C342.121 20.1891 342.586 20.7594 342.586 21.4938C342.586 22.4586 341.75 23.1344 340.555 23.1344ZM340.555 22.5329C341.336 22.5329 341.875 22.0876 341.875 21.443C341.875 20.7985 341.336 20.3532 340.555 20.3532C339.773 20.3532 339.234 20.7985 339.234 21.443C339.234 22.0876 339.773 22.5329 340.555 22.5329ZM340.555 19.7594C341.219 19.7594 341.664 19.3766 341.664 18.8024C341.664 18.2204 341.223 17.8336 340.555 17.8336C339.887 17.8336 339.445 18.2204 339.445 18.8024C339.445 19.3766 339.891 19.7594 340.555 19.7594ZM346.312 23.0016V21.8336H343.566V21.193C344.07 20.2985 344.965 18.8844 345.98 17.3649H347V21.2047H347.801V21.8336H347V23.0016H346.312ZM344.285 21.1618V21.2086H346.316V18.0172H346.27C345.691 18.8571 344.957 20.0211 344.285 21.1618ZM350.973 18.6227C350.973 19.4196 350.477 19.9821 349.773 19.9821C349.07 19.9821 348.57 19.4196 348.57 18.6227C348.57 17.8297 349.07 17.2672 349.773 17.2672C350.477 17.2672 350.973 17.8258 350.973 18.6227ZM349.773 19.4821C350.117 19.4821 350.348 19.1383 350.348 18.6227C350.348 18.0954 350.125 17.7672 349.773 17.7672C349.422 17.7672 349.195 18.1032 349.195 18.6227C349.195 19.1422 349.426 19.4821 349.773 19.4821ZM349.711 23.0016H348.992L351.145 20.0641L353.121 17.3649H353.832L351.645 20.3571L349.711 23.0016ZM354.234 21.7399C354.234 22.5368 353.738 23.0993 353.035 23.0993C352.332 23.0993 351.832 22.5368 351.832 21.7399C351.832 20.9469 352.332 20.3844 353.035 20.3844C353.738 20.3844 354.234 20.943 354.234 21.7399ZM353.035 22.5993C353.379 22.5993 353.609 22.2555 353.609 21.7399C353.609 21.2126 353.387 20.8844 353.035 20.8844C352.684 20.8844 352.457 21.2204 352.457 21.7399C352.457 22.2594 352.688 22.5993 353.035 22.5993Z" fill="#1D4184"/>
<g filter="url(#filter7_d_7_361)">
<rect x="303" y="96" width="24" height="20" rx="4" fill="white"/>
</g>
<path d="M306.594 104.951C306.594 103.951 307.352 103.232 308.398 103.232C309.41 103.232 310.184 103.92 310.184 104.814C310.184 105.4 309.918 105.857 308.992 106.849L307.637 108.306V108.369H310.277V109.002H306.629V108.517L308.578 106.388C309.305 105.599 309.48 105.295 309.48 104.841C309.48 104.279 309 103.845 308.379 103.845C307.719 103.845 307.273 104.287 307.273 104.951V104.955H306.594V104.951ZM313.922 109.002V107.834H311.176V107.193C311.68 106.298 312.574 104.884 313.59 103.365H314.609V107.205H315.41V107.834H314.609V109.002H313.922ZM311.895 107.162V107.209H313.926V104.017H313.879C313.301 104.857 312.566 106.021 311.895 107.162ZM318.582 104.623C318.582 105.42 318.086 105.982 317.383 105.982C316.68 105.982 316.18 105.42 316.18 104.623C316.18 103.83 316.68 103.267 317.383 103.267C318.086 103.267 318.582 103.826 318.582 104.623ZM317.383 105.482C317.727 105.482 317.957 105.138 317.957 104.623C317.957 104.095 317.734 103.767 317.383 103.767C317.031 103.767 316.805 104.103 316.805 104.623C316.805 105.142 317.035 105.482 317.383 105.482ZM317.32 109.002H316.602L318.754 106.064L320.73 103.365H321.441L319.254 106.357L317.32 109.002ZM321.844 107.74C321.844 108.537 321.348 109.099 320.645 109.099C319.941 109.099 319.441 108.537 319.441 107.74C319.441 106.947 319.941 106.384 320.645 106.384C321.348 106.384 321.844 106.943 321.844 107.74ZM320.645 108.599C320.988 108.599 321.219 108.256 321.219 107.74C321.219 107.213 320.996 106.884 320.645 106.884C320.293 106.884 320.066 107.22 320.066 107.74C320.066 108.259 320.297 108.599 320.645 108.599Z" fill="#1D4184"/>
<g filter="url(#filter8_d_7_361)">
<rect x="271" y="14" width="24" height="20" rx="4" fill="white"/>
</g>
<path d="M274.863 27.0016L277.395 22.0485V21.9938H274.379V21.3649H278.109V22.0172L275.602 27.0016H274.863ZM281.297 27.0016V25.8336H278.551V25.193C279.055 24.2985 279.949 22.8844 280.965 21.3649H281.984V25.2047H282.785V25.8336H281.984V27.0016H281.297ZM279.27 25.1618V25.2086H281.301V22.0172H281.254C280.676 22.8571 279.941 24.0211 279.27 25.1618ZM285.957 22.6227C285.957 23.4196 285.461 23.9821 284.758 23.9821C284.055 23.9821 283.555 23.4196 283.555 22.6227C283.555 21.8297 284.055 21.2672 284.758 21.2672C285.461 21.2672 285.957 21.8258 285.957 22.6227ZM284.758 23.4821C285.102 23.4821 285.332 23.1383 285.332 22.6227C285.332 22.0954 285.109 21.7672 284.758 21.7672C284.406 21.7672 284.18 22.1032 284.18 22.6227C284.18 23.1422 284.41 23.4821 284.758 23.4821ZM284.695 27.0016H283.977L286.129 24.0641L288.105 21.3649H288.816L286.629 24.3571L284.695 27.0016ZM289.219 25.7399C289.219 26.5368 288.723 27.0993 288.02 27.0993C287.316 27.0993 286.816 26.5368 286.816 25.7399C286.816 24.9469 287.316 24.3844 288.02 24.3844C288.723 24.3844 289.219 24.943 289.219 25.7399ZM288.02 26.5993C288.363 26.5993 288.594 26.2555 288.594 25.7399C288.594 25.2126 288.371 24.8844 288.02 24.8844C287.668 24.8844 287.441 25.2204 287.441 25.7399C287.441 26.2594 287.672 26.5993 288.02 26.5993Z" fill="#1D4184"/>
<g filter="url(#filter9_d_7_361)">
<rect x="239" y="72" width="24" height="20" rx="4" fill="white"/>
</g>
<path d="M243.781 82.404V81.8024H244.465C245.105 81.8024 245.559 81.3883 245.559 80.8024C245.559 80.2282 245.125 79.8454 244.477 79.8454C243.828 79.8454 243.402 80.2047 243.344 80.8102H242.66C242.73 79.8336 243.43 79.2321 244.504 79.2321C245.488 79.2321 246.273 79.8883 246.273 80.7086C246.273 81.3805 245.902 81.8727 245.285 82.0211V82.0836C246.051 82.1813 246.516 82.7126 246.516 83.4821C246.516 84.4118 245.645 85.1344 244.531 85.1344C243.387 85.1344 242.598 84.4977 242.547 83.5329H243.227C243.289 84.1344 243.797 84.5211 244.523 84.5211C245.266 84.5211 245.793 84.0797 245.793 83.4626C245.793 82.8102 245.297 82.404 244.496 82.404H243.781ZM249.539 85.1344C248.27 85.1344 247.539 84.0563 247.539 82.1813C247.539 80.3219 248.277 79.2321 249.539 79.2321C250.793 79.2321 251.531 80.3258 251.531 82.193C251.531 84.0641 250.805 85.1344 249.539 85.1344ZM249.539 84.5211C250.371 84.5211 250.824 83.693 250.824 82.1813C250.824 80.6852 250.363 79.8493 249.539 79.8493C248.715 79.8493 248.246 80.693 248.246 82.1813C248.246 83.6891 248.707 84.5211 249.539 84.5211ZM254.77 80.6227C254.77 81.4196 254.273 81.9821 253.57 81.9821C252.867 81.9821 252.367 81.4196 252.367 80.6227C252.367 79.8297 252.867 79.2672 253.57 79.2672C254.273 79.2672 254.77 79.8258 254.77 80.6227ZM253.57 81.4821C253.914 81.4821 254.145 81.1383 254.145 80.6227C254.145 80.0954 253.922 79.7672 253.57 79.7672C253.219 79.7672 252.992 80.1032 252.992 80.6227C252.992 81.1422 253.223 81.4821 253.57 81.4821ZM253.508 85.0016H252.789L254.941 82.0641L256.918 79.3649H257.629L255.441 82.3571L253.508 85.0016ZM258.031 83.7399C258.031 84.5368 257.535 85.0993 256.832 85.0993C256.129 85.0993 255.629 84.5368 255.629 83.7399C255.629 82.9469 256.129 82.3844 256.832 82.3844C257.535 82.3844 258.031 82.943 258.031 83.7399ZM256.832 84.5993C257.176 84.5993 257.406 84.2555 257.406 83.7399C257.406 83.2126 257.184 82.8844 256.832 82.8844C256.48 82.8844 256.254 83.2204 256.254 83.7399C256.254 84.2594 256.484 84.5993 256.832 84.5993Z" fill="#1D4184"/>
<defs>
<filter id="filter0_d_7_361" x="39" y="28" width="40" height="36" filterUnits="userSpaceOnUse" color-interpolation-filters="sRGB">
<feFlood flood-opacity="0" result="BackgroundImageFix"/>
<feColorMatrix in="SourceAlpha" type="matrix" values="0 0 0 0 0 0 0 0 0 0 0 0 0 0 0 0 0 0 127 0" result="hardAlpha"/>
<feOffset dy="2"/>
<feGaussianBlur stdDeviation="4"/>
<feComposite in2="hardAlpha" operator="out"/>
<feColorMatrix type="matrix" values="0 0 0 0 0 0 0 0 0 0 0 0 0 0 0 0 0 0 0.08 0"/>
<feBlend mode="normal" in2="BackgroundImageFix" result="effect1_dropShadow_7_361"/>
<feBlend mode="normal" in="SourceGraphic" in2="effect1_dropShadow_7_361" result="shape"/>
</filter>
<filter id="filter1_d_7_361" x="71" y="4" width="40" height="36" filterUnits="userSpaceOnUse" color-interpolation-filters="sRGB">
<feFlood flood-opacity="0" result="BackgroundImageFix"/>
<feColorMatrix in="SourceAlpha" type="matrix" values="0 0 0 0 0 0 0 0 0 0 0 0 0 0 0 0 0 0 127 0" result="hardAlpha"/>
<feOffset dy="2"/>
<feGaussianBlur stdDeviation="4"/>
<feComposite in2="hardAlpha" operator="out"/>
<feColorMatrix type="matrix" values="0 0 0 0 0 0 0 0 0 0 0 0 0 0 0 0 0 0 0.08 0"/>
<feBlend mode="normal" in2="BackgroundImageFix" result="effect1_dropShadow_7_361"/>
<feBlend mode="normal" in="SourceGraphic" in2="effect1_dropShadow_7_361" result="shape"/>
</filter>
<filter id="filter2_d_7_361" x="103" y="23" width="40" height="36" filterUnits="userSpaceOnUse" color-interpolation-filters="sRGB">
<feFlood flood-opacity="0" result="BackgroundImageFix"/>
<feColorMatrix in="SourceAlpha" type="matrix" values="0 0 0 0 0 0 0 0 0 0 0 0 0 0 0 0 0 0 127 0" result="hardAlpha"/>
<feOffset dy="2"/>
<feGaussianBlur stdDeviation="4"/>
<feComposite in2="hardAlpha" operator="out"/>
<feColorMatrix type="matrix" values="0 0 0 0 0 0 0 0 0 0 0 0 0 0 0 0 0 0 0.08 0"/>
<feBlend mode="normal" in2="BackgroundImageFix" result="effect1_dropShadow_7_361"/>
<feBlend mode="normal" in="SourceGraphic" in2="effect1_dropShadow_7_361" result="shape"/>
</filter>
<filter id="filter3_d_7_361" x="135" y="4" width="40" height="36" filterUnits="userSpaceOnUse" color-interpolation-filters="sRGB">
<feFlood flood-opacity="0" result="BackgroundImageFix"/>
<feColorMatrix in="SourceAlpha" type="matrix" values="0 0 0 0 0 0 0 0 0 0 0 0 0 0 0 0 0 0 127 0" result="hardAlpha"/>
<feOffset dy="2"/>
<feGaussianBlur stdDeviation="4"/>
<feComposite in2="hardAlpha" operator="out"/>
<feColorMatrix type="matrix" values="0 0 0 0 0 0 0 0 0 0 0 0 0 0 0 0 0 0 0.08 0"/>
<feBlend mode="normal" in2="BackgroundImageFix" result="effect1_dropShadow_7_361"/>
<feBlend mode="normal" in="SourceGraphic" in2="effect1_dropShadow_7_361" result="shape"/>
</filter>
<filter id="filter4_d_7_361" x="167" y="45" width="40" height="36" filterUnits="userSpaceOnUse" color-interpolation-filters="sRGB">
<feFlood flood-opacity="0" result="BackgroundImageFix"/>
<feColorMatrix in="SourceAlpha" type="matrix" values="0 0 0 0 0 0 0 0 0 0 0 0 0 0 0 0 0 0 127 0" result="hardAlpha"/>
<feOffset dy="2"/>
<feGaussianBlur stdDeviation="4"/>
<feComposite in2="hardAlpha" operator="out"/>
<feColorMatrix type="matrix" values="0 0 0 0 0 0 0 0 0 0 0 0 0 0 0 0 0 0 0.08 0"/>
<feBlend mode="normal" in2="BackgroundImageFix" result="effect1_dropShadow_7_361"/>
<feBlend mode="normal" in="SourceGraphic" in2="effect1_dropShadow_7_361" result="shape"/>
</filter>
<filter id="filter5_d_7_361" x="199" y="4" width="40" height="36" filterUnits="userSpaceOnUse" color-interpolation-filters="sRGB">
<feFlood flood-opacity="0" result="BackgroundImageFix"/>
<feColorMatrix in="SourceAlpha" type="matrix" values="0 0 0 0 0 0 0 0 0 0 0 0 0 0 0 0 0 0 127 0" result="hardAlpha"/>
<feOffset dy="2"/>
<feGaussianBlur stdDeviation="4"/>
<feComposite in2="hardAlpha" operator="out"/>
<feColorMatrix type="matrix" values="0 0 0 0 0 0 0 0 0 0 0 0 0 0 0 0 0 0 0.08 0"/>
<feBlend mode="normal" in2="BackgroundImageFix" result="effect1_dropShadow_7_361"/>
<feBlend mode="normal" in="SourceGraphic" in2="effect1_dropShadow_7_361" result="shape"/>
</filter>
<filter id="filter6_d_7_361" x="327" y="4" width="40" height="36" filterUnits="userSpaceOnUse" color-interpolation-filters="sRGB">
<feFlood flood-opacity="0" result="BackgroundImageFix"/>
<feColorMatrix in="SourceAlpha" type="matrix" values="0 0 0 0 0 0 0 0 0 0 0 0 0 0 0 0 0 0 127 0" result="hardAlpha"/>
<feOffset dy="2"/>
<feGaussianBlur stdDeviation="4"/>
<feComposite in2="hardAlpha" operator="out"/>
<feColorMatrix type="matrix" values="0 0 0 0 0 0 0 0 0 0 0 0 0 0 0 0 0 0 0.08 0"/>
<feBlend mode="normal" in2="BackgroundImageFix" result="effect1_dropShadow_7_361"/>
<feBlend mode="normal" in="SourceGraphic" in2="effect1_dropShadow_7_361" result="shape"/>
</filter>
<filter id="filter7_d_7_361" x="295" y="90" width="40" height="36" filterUnits="userSpaceOnUse" color-interpolation-filters="sRGB">
<feFlood flood-opacity="0" result="BackgroundImageFix"/>
<feColorMatrix in="SourceAlpha" type="matrix" values="0 0 0 0 0 0 0 0 0 0 0 0 0 0 0 0 0 0 127 0" result="hardAlpha"/>
<feOffset dy="2"/>
<feGaussianBlur stdDeviation="4"/>
<feComposite in2="hardAlpha" operator="out"/>
<feColorMatrix type="matrix" values="0 0 0 0 0 0 0 0 0 0 0 0 0 0 0 0 0 0 0.08 0"/>
<feBlend mode="normal" in2="BackgroundImageFix" result="effect1_dropShadow_7_361"/>
<feBlend mode="normal" in="SourceGraphic" in2="effect1_dropShadow_7_361" result="shape"/>
</filter>
<filter id="filter8_d_7_361" x="263" y="8" width="40" height="36" filterUnits="userSpaceOnUse" color-interpolation-filters="sRGB">
<feFlood flood-opacity="0" result="BackgroundImageFix"/>
<feColorMatrix in="SourceAlpha" type="matrix" values="0 0 0 0 0 0 0 0 0 0 0 0 0 0 0 0 0 0 127 0" result="hardAlpha"/>
<feOffset dy="2"/>
<feGaussianBlur stdDeviation="4"/>
<feComposite in2="hardAlpha" operator="out"/>
<feColorMatrix type="matrix" values="0 0 0 0 0 0 0 0 0 0 0 0 0 0 0 0 0 0 0.08 0"/>
<feBlend mode="normal" in2="BackgroundImageFix" result="effect1_dropShadow_7_361"/>
<feBlend mode="normal" in="SourceGraphic" in2="effect1_dropShadow_7_361" result="shape"/>
</filter>
<filter id="filter9_d_7_361" x="231" y="66" width="40" height="36" filterUnits="userSpaceOnUse" color-interpolation-filters="sRGB">
<feFlood flood-opacity="0" result="BackgroundImageFix"/>
<feColorMatrix in="SourceAlpha" type="matrix" values="0 0 0 0 0 0 0 0 0 0 0 0 0 0 0 0 0 0 127 0" result="hardAlpha"/>
<feOffset dy="2"/>
<feGaussianBlur stdDeviation="4"/>
<feComposite in2="hardAlpha" operator="out"/>
<feColorMatrix type="matrix" values="0 0 0 0 0 0 0 0 0 0 0 0 0 0 0 0 0 0 0.08 0"/>
<feBlend mode="normal" in2="BackgroundImageFix" result="effect1_dropShadow_7_361"/>
<feBlend mode="normal" in="SourceGraphic" in2="effect1_dropShadow_7_361" result="shape"/>
</filter>
</defs>
</svg>
