<svg width="63" height="62" viewBox="0 0 63 62" fill="none" xmlns="http://www.w3.org/2000/svg">
<circle cx="31.5" cy="31" r="30.5" stroke="#B3B6B4"/>
<g clip-path="url(#clip0_1651_198)">
<path fill-rule="evenodd" clip-rule="evenodd" d="M28.2998 34.973L40.1151 32.9355L45.0861 44.5746L38.9386 44.5043L33.8872 48.6082L28.2998 34.973Z" fill="url(#paint0_linear_1651_198)"/>
<path fill-rule="evenodd" clip-rule="evenodd" d="M35.0946 33.6841L22.4274 34.02L17 46.9481L23.1475 46.8771L28.1989 50.981L35.0946 33.6841Z" fill="url(#paint1_linear_1651_198)"/>
<path fill-rule="evenodd" clip-rule="evenodd" d="M31.295 11.0221C32.0244 10.9909 32.5994 11.2456 33.1791 11.6151C33.9155 12.0823 34.744 13.0057 35.7668 13.5917C37.2062 14.4151 39.8711 13.2792 41.2364 15.3096C42.0329 16.494 42.0703 17.4221 42.1296 18.3393C42.1936 19.3292 42.3668 20.2393 43.3779 21.5792C45.0528 23.7963 45.4015 25.2721 44.5387 26.8104C43.9505 27.8588 42.7124 28.4417 42.4253 29.1057C41.816 30.519 42.4901 31.5838 41.6553 33.2315C41.0757 34.3737 40.1816 35.1268 38.9903 35.5112C37.9855 35.8346 36.9776 35.3667 36.174 35.7049C34.7604 36.2995 33.7181 37.6815 32.594 38.0307C32.1594 38.1659 31.7272 38.2323 31.295 38.2292C30.8636 38.2323 30.4306 38.1659 29.9969 38.0307C28.8719 37.6815 27.8296 36.2995 26.416 35.7049C25.6125 35.3667 24.6045 35.8346 23.5997 35.5112C22.4092 35.1268 21.5144 34.3737 20.9347 33.2315C20.1 31.5838 20.774 30.519 20.1647 29.1057C19.8776 28.4417 18.6396 27.8588 18.0513 26.8104C17.1885 25.2721 17.538 23.7963 19.2122 21.5792C20.2232 20.2393 20.3964 19.3292 20.4604 18.3393C20.5197 17.4221 20.5571 16.494 21.3537 15.3096C22.7189 13.2792 25.3839 14.4151 26.8232 13.5917C27.8468 13.0057 28.6745 12.0823 29.411 11.6151C29.9914 11.2456 30.5664 10.9909 31.295 11.0221Z" fill="url(#paint2_linear_1651_198)"/>
<path fill-rule="evenodd" clip-rule="evenodd" d="M31.2951 11.0222C32.0245 10.9902 32.5987 11.2457 33.1791 11.6144C33.9156 12.0816 34.7441 13.0051 35.7668 13.591C36.9113 14.2457 38.8312 13.6621 40.2558 14.416L24.1755 35.6207C23.9843 35.6051 23.7916 35.5722 23.5997 35.5105C22.4085 35.1262 21.5144 34.3738 20.9348 33.2308C20.1 31.5832 20.7741 30.5183 20.1648 29.1051C19.8777 28.441 18.6396 27.8582 18.0514 26.8097C17.1885 25.2715 17.538 23.7957 19.2114 21.5785C20.2233 20.2394 20.3965 19.3285 20.4604 18.3386C20.5197 17.4215 20.5572 16.4933 21.3529 15.309C22.719 13.2777 25.3847 14.4144 26.8233 13.591C27.8468 13.0051 28.6753 12.0816 29.411 11.6144C29.9914 11.2457 30.5664 10.9902 31.2951 11.0222Z" fill="url(#paint3_linear_1651_198)"/>
<path d="M31.2509 34.9955C36.8538 34.9955 41.3959 30.447 41.3959 24.8361C41.3959 19.2253 36.8538 14.6768 31.2509 14.6768C25.648 14.6768 21.106 19.2253 21.106 24.8361C21.106 30.447 25.648 34.9955 31.2509 34.9955Z" fill="url(#paint4_linear_1651_198)"/>
<path fill-rule="evenodd" clip-rule="evenodd" d="M31.2531 16.7153C35.7319 16.7153 39.3619 20.3513 39.3619 24.8364C39.3619 29.3216 35.7319 32.9575 31.2531 32.9575C26.7743 32.9575 23.1436 29.3216 23.1436 24.8364C23.1436 20.3513 26.7743 16.7153 31.2531 16.7153Z" fill="url(#paint5_linear_1651_198)"/>
<path fill-rule="evenodd" clip-rule="evenodd" d="M31.2531 16.7153C33.397 16.7153 35.3481 17.5489 36.7976 18.9099L26.8555 31.6599C26.495 31.4271 26.1541 31.1653 25.8358 30.8794C24.1835 29.3935 23.1436 27.2364 23.1436 24.8364C23.1436 20.3513 26.7743 16.7153 31.2531 16.7153Z" fill="url(#paint6_linear_1651_198)"/>
<path d="M31.4931 20.0884L32.7655 23.072L35.9921 23.3619C36.1349 23.3744 36.2402 23.5001 36.2277 23.6423C36.2223 23.7119 36.1895 23.7728 36.1404 23.815L33.6993 25.9501L34.4217 29.1142C34.4537 29.254 34.3663 29.3931 34.2267 29.4251C34.1549 29.4415 34.0839 29.4267 34.027 29.39L31.2536 27.729L28.4716 29.3947C28.3491 29.4681 28.1899 29.4283 28.1166 29.3056C28.0807 29.2454 28.0721 29.1775 28.0862 29.1142L28.8086 25.9501L26.3668 23.815C26.2591 23.7212 26.2482 23.5572 26.3426 23.4494C26.3902 23.3947 26.4565 23.365 26.5236 23.3611L29.7424 23.072L31.0156 20.0869C31.0718 19.9548 31.2239 19.8939 31.355 19.9501C31.4205 19.9775 31.4681 20.0283 31.4931 20.0884Z" fill="url(#paint7_linear_1651_198)"/>
</g>
<defs>
<linearGradient id="paint0_linear_1651_198" x1="36.693" y1="32.9355" x2="36.6511" y2="45.4541" gradientUnits="userSpaceOnUse">
<stop stop-color="#7C7E7D"/>
<stop offset="1" stop-color="#E0E4E2"/>
</linearGradient>
<linearGradient id="paint1_linear_1651_198" x1="26.0473" y1="33.6841" x2="26" y2="47.5" gradientUnits="userSpaceOnUse">
<stop stop-color="#7C7E7D"/>
<stop offset="1" stop-color="#E0E4E2"/>
</linearGradient>
<linearGradient id="paint2_linear_1651_198" x1="31.2951" y1="11.0195" x2="31.2178" y2="32.7533" gradientUnits="userSpaceOnUse">
<stop stop-color="#7C7E7D"/>
<stop offset="1" stop-color="#E0E4E2"/>
</linearGradient>
<linearGradient id="paint3_linear_1651_198" x1="28.9257" y1="11.0195" x2="28.8493" y2="30.6697" gradientUnits="userSpaceOnUse">
<stop stop-color="#7C7E7D"/>
<stop offset="1" stop-color="#E0E4E2"/>
</linearGradient>
<linearGradient id="paint4_linear_1651_198" x1="31.2509" y1="14.6768" x2="31.1927" y2="30.9064" gradientUnits="userSpaceOnUse">
<stop stop-color="#7C7E7D"/>
<stop offset="1" stop-color="#E0E4E2"/>
</linearGradient>
<linearGradient id="paint5_linear_1651_198" x1="31.2527" y1="16.7153" x2="31.2062" y2="29.6888" gradientUnits="userSpaceOnUse">
<stop stop-color="#7C7E7D"/>
<stop offset="1" stop-color="#E0E4E2"/>
</linearGradient>
<linearGradient id="paint6_linear_1651_198" x1="29.9706" y1="16.7153" x2="29.9238" y2="28.6523" gradientUnits="userSpaceOnUse">
<stop stop-color="#7C7E7D"/>
<stop offset="1" stop-color="#E0E4E2"/>
</linearGradient>
<linearGradient id="paint7_linear_1651_198" x1="31.2535" y1="19.9292" x2="31" y2="27" gradientUnits="userSpaceOnUse">
<stop stop-color="#323232"/>
<stop offset="1" stop-color="white"/>
</linearGradient>
<clipPath id="clip0_1651_198">
<rect width="28.0851" height="40" fill="white" transform="translate(17 11)"/>
</clipPath>
</defs>
</svg>
