<svg width="28" height="28" viewBox="0 0 28 28" fill="none" xmlns="http://www.w3.org/2000/svg">
<path d="M12.8333 10.5002H15.1667V8.16683H12.8333M14 23.3335C8.855 23.3335 4.66667 19.1452 4.66667 14.0002C4.66667 8.85516 8.855 4.66683 14 4.66683C19.145 4.66683 23.3333 8.85516 23.3333 14.0002C23.3333 19.1452 19.145 23.3335 14 23.3335ZM14 2.3335C12.4679 2.3335 10.9508 2.63526 9.53536 3.22157C8.11989 3.80787 6.83377 4.66723 5.75042 5.75058C3.5625 7.93851 2.33333 10.906 2.33333 14.0002C2.33333 17.0944 3.5625 20.0618 5.75042 22.2497C6.83377 23.3331 8.11989 24.1925 9.53536 24.7788C10.9508 25.3651 12.4679 25.6668 14 25.6668C17.0942 25.6668 20.0617 24.4377 22.2496 22.2497C24.4375 20.0618 25.6667 17.0944 25.6667 14.0002C25.6667 12.4681 25.3649 10.951 24.7786 9.53552C24.1923 8.12006 23.3329 6.83393 22.2496 5.75058C21.1662 4.66723 19.8801 3.80787 18.4646 3.22157C17.0492 2.63526 15.5321 2.3335 14 2.3335ZM12.8333 19.8335H15.1667V12.8335H12.8333V19.8335Z" fill="#7E6EE0"/>
</svg>
