<svg width="32" height="32" viewBox="0 0 32 32" fill="none" xmlns="http://www.w3.org/2000/svg">
<g clip-path="url(#clip0_7_3823)">
<path d="M16.2365 9.19434C14.9725 9.19434 13.0159 7.75719 10.9554 7.80913C8.23694 7.84376 5.74355 9.38481 4.34103 11.8262C1.51866 16.7264 3.61379 23.9642 6.3669 27.9466C7.71748 29.8859 9.31047 32.0677 11.4229 31.9984C13.4488 31.9118 14.2107 30.6824 16.6694 30.6824C19.1108 30.6824 19.8035 31.9984 21.9505 31.9464C24.1322 31.9118 25.5175 29.9725 26.8507 28.0159C28.3918 25.7649 29.0324 23.5832 29.0671 23.462C29.0151 23.4447 24.8249 21.8344 24.7729 16.9862C24.7383 12.9344 28.0801 10.9951 28.2359 10.9085C26.3313 8.1208 23.405 7.80913 22.3834 7.73987C19.7169 7.53209 17.4832 9.19434 16.2365 9.19434ZM20.7385 5.10797C21.864 3.75739 22.6085 1.87004 22.4007 0C20.7904 0.0692606 18.8511 1.07354 17.691 2.42412C16.6521 3.61887 15.7517 5.54085 15.9941 7.37625C17.7776 7.51477 19.613 6.45855 20.7385 5.10797Z" fill="black"/>
</g>
<defs>
<clipPath id="clip0_7_3823">
<rect width="32" height="32" fill="white"/>
</clipPath>
</defs>
</svg>
