<svg width="32" height="32" viewBox="0 0 32 32" fill="none" xmlns="http://www.w3.org/2000/svg">
<path d="M25.3333 5.33341H22.6667V4.00008C22.6667 3.64646 22.5262 3.30732 22.2761 3.05727C22.0261 2.80722 21.687 2.66675 21.3333 2.66675C20.9797 2.66675 20.6406 2.80722 20.3905 3.05727C20.1405 3.30732 20 3.64646 20 4.00008V5.33341H12V4.00008C12 3.64646 11.8595 3.30732 11.6095 3.05727C11.3594 2.80722 11.0203 2.66675 10.6667 2.66675C10.313 2.66675 9.97391 2.80722 9.72386 3.05727C9.47381 3.30732 9.33334 3.64646 9.33334 4.00008V5.33341H6.66667C5.60581 5.33341 4.58839 5.75484 3.83824 6.50499C3.0881 7.25513 2.66667 8.27255 2.66667 9.33341V25.3334C2.66667 26.3943 3.0881 27.4117 3.83824 28.1618C4.58839 28.912 5.60581 29.3334 6.66667 29.3334H25.3333C26.3942 29.3334 27.4116 28.912 28.1618 28.1618C28.9119 27.4117 29.3333 26.3943 29.3333 25.3334V9.33341C29.3333 8.27255 28.9119 7.25513 28.1618 6.50499C27.4116 5.75484 26.3942 5.33341 25.3333 5.33341ZM26.6667 25.3334C26.6667 25.687 26.5262 26.0262 26.2761 26.2762C26.0261 26.5263 25.687 26.6667 25.3333 26.6667H6.66667C6.31305 26.6667 5.97391 26.5263 5.72386 26.2762C5.47381 26.0262 5.33334 25.687 5.33334 25.3334V16.0001H26.6667V25.3334ZM26.6667 13.3334H5.33334V9.33341C5.33334 8.97979 5.47381 8.64065 5.72386 8.39061C5.97391 8.14056 6.31305 8.00008 6.66667 8.00008H9.33334V9.33341C9.33334 9.68704 9.47381 10.0262 9.72386 10.2762C9.97391 10.5263 10.313 10.6667 10.6667 10.6667C11.0203 10.6667 11.3594 10.5263 11.6095 10.2762C11.8595 10.0262 12 9.68704 12 9.33341V8.00008H20V9.33341C20 9.68704 20.1405 10.0262 20.3905 10.2762C20.6406 10.5263 20.9797 10.6667 21.3333 10.6667C21.687 10.6667 22.0261 10.5263 22.2761 10.2762C22.5262 10.0262 22.6667 9.68704 22.6667 9.33341V8.00008H25.3333C25.687 8.00008 26.0261 8.14056 26.2761 8.39061C26.5262 8.64065 26.6667 8.97979 26.6667 9.33341V13.3334Z" fill="black" fill-opacity="0.4"/>
</svg>
