<svg width="32" height="32" viewBox="0 0 32 32" fill="none" xmlns="http://www.w3.org/2000/svg">
<path d="M25.3332 5.33341H22.6665V4.00008C22.6665 3.64646 22.526 3.30732 22.276 3.05727C22.0259 2.80722 21.6868 2.66675 21.3332 2.66675C20.9795 2.66675 20.6404 2.80722 20.3904 3.05727C20.1403 3.30732 19.9998 3.64646 19.9998 4.00008V5.33341H11.9998V4.00008C11.9998 3.64646 11.8594 3.30732 11.6093 3.05727C11.3593 2.80722 11.0201 2.66675 10.6665 2.66675C10.3129 2.66675 9.97374 2.80722 9.72369 3.05727C9.47365 3.30732 9.33317 3.64646 9.33317 4.00008V5.33341H6.6665C5.60564 5.33341 4.58822 5.75484 3.83808 6.50499C3.08793 7.25513 2.6665 8.27255 2.6665 9.33341V25.3334C2.6665 26.3943 3.08793 27.4117 3.83808 28.1618C4.58822 28.912 5.60564 29.3334 6.6665 29.3334H25.3332C26.394 29.3334 27.4115 28.912 28.1616 28.1618C28.9117 27.4117 29.3332 26.3943 29.3332 25.3334V9.33341C29.3332 8.27255 28.9117 7.25513 28.1616 6.50499C27.4115 5.75484 26.394 5.33341 25.3332 5.33341ZM26.6665 25.3334C26.6665 25.687 26.526 26.0262 26.276 26.2762C26.0259 26.5263 25.6868 26.6667 25.3332 26.6667H6.6665C6.31288 26.6667 5.97374 26.5263 5.7237 26.2762C5.47365 26.0262 5.33317 25.687 5.33317 25.3334V16.0001H26.6665V25.3334ZM26.6665 13.3334H5.33317V9.33341C5.33317 8.97979 5.47365 8.64065 5.7237 8.39061C5.97374 8.14056 6.31288 8.00008 6.6665 8.00008H9.33317V9.33341C9.33317 9.68704 9.47365 10.0262 9.72369 10.2762C9.97374 10.5263 10.3129 10.6667 10.6665 10.6667C11.0201 10.6667 11.3593 10.5263 11.6093 10.2762C11.8594 10.0262 11.9998 9.68704 11.9998 9.33341V8.00008H19.9998V9.33341C19.9998 9.68704 20.1403 10.0262 20.3904 10.2762C20.6404 10.5263 20.9795 10.6667 21.3332 10.6667C21.6868 10.6667 22.0259 10.5263 22.276 10.2762C22.526 10.0262 22.6665 9.68704 22.6665 9.33341V8.00008H25.3332C25.6868 8.00008 26.0259 8.14056 26.276 8.39061C26.526 8.64065 26.6665 8.97979 26.6665 9.33341V13.3334Z" fill="white"/>
</svg>
