<svg width="24" height="24" viewBox="0 0 24 24" fill="none" xmlns="http://www.w3.org/2000/svg">
<g clip-path="url(#clip0_7_6932)">
<path d="M8.62191 21.5394C8.70825 21.633 8.75416 21.7569 8.74967 21.8842C8.74517 22.0114 8.69064 22.1318 8.59791 22.2191L7.55535 23.194C7.46225 23.2805 7.33863 23.3265 7.21164 23.3219C7.08465 23.3173 6.96468 23.2625 6.87807 23.1695L0.806549 16.6261C0.720268 16.5325 0.674441 16.4085 0.679024 16.2812C0.683608 16.154 0.738233 16.0337 0.831029 15.9464L1.87503 14.973C1.9211 14.9301 1.97516 14.8967 2.03414 14.8747C2.09311 14.8528 2.15584 14.8426 2.21874 14.8449C2.28164 14.8472 2.34347 14.8618 2.40071 14.888C2.45794 14.9142 2.50946 14.9514 2.55231 14.9975L8.62191 21.5394ZM16.3691 9.2274C16.4554 9.32107 16.5012 9.44501 16.4966 9.57228C16.492 9.69954 16.4374 9.81986 16.3446 9.90708L9.78303 16.0367C9.68993 16.1232 9.56631 16.1692 9.43932 16.1646C9.31233 16.16 9.19236 16.1052 9.10575 16.0122L7.53951 14.3221C7.45323 14.2285 7.4074 14.1045 7.41198 13.9772C7.41657 13.85 7.47119 13.7297 7.56399 13.6424L14.1241 7.51284C14.1702 7.46997 14.2242 7.43659 14.2831 7.41462C14.3421 7.39264 14.4048 7.3825 14.4676 7.38478C14.5305 7.38705 14.5923 7.40169 14.6495 7.42787C14.7067 7.45404 14.7581 7.49124 14.8009 7.53732L16.3691 9.2274ZM10.8544 19.4528C11.0339 19.6463 11.0229 19.952 10.8299 20.1325L9.78591 21.1069C9.73984 21.1498 9.68578 21.1832 9.6268 21.2052C9.56782 21.2272 9.50509 21.2373 9.4422 21.235C9.3793 21.2328 9.31746 21.2181 9.26023 21.1919C9.20299 21.1657 9.15148 21.1285 9.10863 21.0824L3.04047 14.5391C2.95413 14.4455 2.90822 14.3216 2.91271 14.1943C2.9172 14.067 2.97174 13.9467 3.06447 13.8594L4.10655 12.8855C4.19964 12.799 4.32326 12.753 4.45025 12.7576C4.57724 12.7622 4.69722 12.817 4.78383 12.91L10.8544 19.4528ZM20.9646 9.46212C21.0508 9.55585 21.0966 9.67982 21.0919 9.80709C21.0872 9.93436 21.0325 10.0546 20.9397 10.1418L19.8961 11.1162C19.803 11.2028 19.6794 11.2489 19.5523 11.2444C19.4252 11.2399 19.3051 11.1852 19.2184 11.0922L13.1493 4.55028C13.0628 4.45673 13.0168 4.33281 13.0213 4.2055C13.0258 4.07819 13.0804 3.95782 13.1733 3.8706L14.2197 2.8938C14.2657 2.85093 14.3197 2.81755 14.3787 2.79558C14.4376 2.7736 14.5003 2.76346 14.5631 2.76574C14.626 2.76801 14.6878 2.78265 14.745 2.80883C14.8022 2.835 14.8537 2.8722 14.8965 2.91828L20.9646 9.46212ZM23.1937 7.37892C23.2799 7.47273 23.3257 7.59672 23.3211 7.72403C23.3165 7.85134 23.262 7.97171 23.1693 8.05908L22.1277 9.033C22.0817 9.0759 22.0277 9.10932 21.9688 9.13133C21.9098 9.15335 21.8472 9.16353 21.7843 9.1613C21.7214 9.15907 21.6596 9.14447 21.6024 9.11834C21.5452 9.09221 21.4937 9.05505 21.4509 9.009L15.3827 2.4642C15.2965 2.37046 15.2506 2.2465 15.2551 2.1192C15.2596 1.99189 15.3141 1.87147 15.4067 1.78404L16.4493 0.808201C16.4952 0.765256 16.5491 0.731802 16.608 0.709758C16.6669 0.687714 16.7296 0.677514 16.7924 0.679744C16.8552 0.681974 16.917 0.696589 16.9742 0.722752C17.0314 0.748914 17.0828 0.786109 17.1256 0.832201L23.1937 7.37892Z" fill="#1D4184"/>
</g>
<defs>
<clipPath id="clip0_7_6932">
<rect width="24" height="24" fill="white"/>
</clipPath>
</defs>
</svg>
