<svg width="24" height="24" viewBox="0 0 24 24" fill="none" xmlns="http://www.w3.org/2000/svg">
<g clip-path="url(#clip0_7_6985)">
<path d="M9.93007 10.3759L12.0801 15.3939C12.1469 15.5503 12.2526 15.6869 12.387 15.7911C12.5214 15.8952 12.6801 15.9633 12.8481 15.9891C13.0162 16.0148 13.188 15.9972 13.3474 15.9381C13.5068 15.8789 13.6485 15.7801 13.7591 15.6509L13.8321 15.5549L15.5351 12.9999H21.4421C19.5271 17.7379 13.2771 20.9999 12.0001 20.9999C10.7501 20.9999 4.73007 17.8729 2.68407 13.2939L2.55807 12.9999H8.00007C8.16466 13 8.32671 12.9594 8.47185 12.8817C8.61699 12.8041 8.74072 12.6919 8.83207 12.5549L8.89407 12.4469L9.93007 10.3759ZM12.0001 4.33894C14.0721 2.65294 16.5341 2.65894 18.4941 3.80094C20.5891 5.02194 22.0631 7.50094 21.9981 10.3929L21.9841 10.6979L21.9571 10.9999H15.0001C14.8564 10.9999 14.7145 11.0307 14.5839 11.0904C14.4532 11.1501 14.337 11.2373 14.2431 11.3459L14.1681 11.4459L13.1921 12.9089L10.9191 7.60594C10.8482 7.44068 10.7341 7.29757 10.5888 7.19168C10.4435 7.08579 10.2723 7.02105 10.0933 7.00426C9.91428 6.98748 9.73404 7.01927 9.57157 7.09629C9.40909 7.17332 9.27039 7.29272 9.17007 7.44194L9.10607 7.55194L7.38207 10.9999H2.04207C2.01975 10.7983 2.0064 10.5958 2.00207 10.3929C1.93707 7.50094 3.41107 5.02294 5.50607 3.80094C7.46607 2.65994 9.92807 2.65194 12.0001 4.33894Z" fill="#1D4184"/>
</g>
<defs>
<clipPath id="clip0_7_6985">
<rect width="24" height="24" fill="white"/>
</clipPath>
</defs>
</svg>
