<svg width="32" height="32" viewBox="0 0 32 32" fill="none" xmlns="http://www.w3.org/2000/svg">
<path d="M26.6668 13.3333C26.6668 12.9797 26.5263 12.6406 26.2763 12.3905C26.0262 12.1405 25.6871 12 25.3334 12C24.9798 12 24.6407 12.1405 24.3906 12.3905C24.1406 12.6406 24.0001 12.9797 24.0001 13.3333H26.6668ZM8.00011 13.3333C8.00011 12.9797 7.85963 12.6406 7.60958 12.3905C7.35953 12.1405 7.0204 12 6.66677 12C6.31315 12 5.97401 12.1405 5.72397 12.3905C5.47392 12.6406 5.33344 12.9797 5.33344 13.3333H8.00011ZM27.0574 16.9426C27.3089 17.1855 27.6457 17.3199 27.9953 17.3169C28.3449 17.3138 28.6793 17.1736 28.9265 16.9264C29.1737 16.6792 29.314 16.3448 29.317 15.9952C29.32 15.6456 29.1857 15.3088 28.9428 15.0573L27.0574 16.9426ZM16.0001 3.99998L16.9428 3.05731C16.6927 2.80735 16.3537 2.66693 16.0001 2.66693C15.6466 2.66693 15.3075 2.80735 15.0574 3.05731L16.0001 3.99998ZM3.05744 15.0573C2.93009 15.1803 2.82852 15.3274 2.75864 15.4901C2.68876 15.6528 2.65198 15.8277 2.65044 16.0048C2.6489 16.1818 2.68264 16.3574 2.74968 16.5213C2.81672 16.6851 2.91572 16.834 3.04091 16.9592C3.16611 17.0844 3.31497 17.1834 3.47884 17.2504C3.6427 17.3174 3.81827 17.3512 3.99531 17.3496C4.17235 17.3481 4.34731 17.3113 4.50998 17.2414C4.67265 17.1716 4.81978 17.07 4.94277 16.9426L3.05744 15.0573ZM9.33344 29.3333H22.6668V26.6666H9.33344V29.3333ZM26.6668 25.3333V13.3333H24.0001V25.3333H26.6668ZM8.00011 25.3333V13.3333H5.33344V25.3333H8.00011ZM28.9428 15.0573L16.9428 3.05731L15.0574 4.94265L27.0574 16.9426L28.9428 15.0573ZM15.0574 3.05731L3.05744 15.0573L4.94277 16.9426L16.9428 4.94265L15.0574 3.05731ZM22.6668 29.3333C23.7276 29.3333 24.7451 28.9119 25.4952 28.1617C26.2453 27.4116 26.6668 26.3942 26.6668 25.3333H24.0001C24.0001 25.6869 23.8596 26.0261 23.6096 26.2761C23.3595 26.5262 23.0204 26.6666 22.6668 26.6666V29.3333ZM9.33344 26.6666C8.97982 26.6666 8.64068 26.5262 8.39063 26.2761C8.14058 26.0261 8.00011 25.6869 8.00011 25.3333H5.33344C5.33344 26.3942 5.75487 27.4116 6.50501 28.1617C7.25516 28.9119 8.27257 29.3333 9.33344 29.3333V26.6666Z" fill="white"/>
</svg>
