<svg width="24" height="24" viewBox="0 0 24 24" fill="none" xmlns="http://www.w3.org/2000/svg">
<path fill-rule="evenodd" clip-rule="evenodd" d="M11.25 17.262L11.202 12H9.375V10.5H12.9765L13.0215 15.762H14.7V17.262H11.25ZM10.875 7.959C10.8643 7.64145 10.9754 7.33181 11.1855 7.0935C11.391 6.864 11.6865 6.75 12.0705 6.75C12.4545 6.75 12.7515 6.864 12.9615 7.095C13.1715 7.323 13.275 7.6125 13.275 7.959C13.275 8.301 13.17 8.5845 12.96 8.811C12.75 9.036 12.4545 9.15 12.0705 9.15C11.6865 9.15 11.391 9.0375 11.1855 8.811C10.9759 8.57771 10.8647 8.27243 10.875 7.959ZM12 19.5C13.9891 19.5 15.8968 18.7098 17.3033 17.3033C18.7098 15.8968 19.5 13.9891 19.5 12C19.5 10.0109 18.7098 8.10322 17.3033 6.6967C15.8968 5.29018 13.9891 4.5 12 4.5C10.0109 4.5 8.10322 5.29018 6.6967 6.6967C5.29018 8.10322 4.5 10.0109 4.5 12C4.5 13.9891 5.29018 15.8968 6.6967 17.3033C8.10322 18.7098 10.0109 19.5 12 19.5ZM12 21C10.8181 21 9.64778 20.7672 8.55585 20.3149C7.46392 19.8626 6.47177 19.1997 5.63604 18.364C4.80031 17.5282 4.13738 16.5361 3.68508 15.4442C3.23279 14.3522 3 13.1819 3 12C3 10.8181 3.23279 9.64778 3.68508 8.55585C4.13738 7.46392 4.80031 6.47177 5.63604 5.63604C6.47177 4.80031 7.46392 4.13738 8.55585 3.68508C9.64778 3.23279 10.8181 3 12 3C14.3869 3 16.6761 3.94821 18.364 5.63604C20.0518 7.32387 21 9.61305 21 12C21 14.3869 20.0518 16.6761 18.364 18.364C16.6761 20.0518 14.3869 21 12 21Z" fill="#1D4184"/>
</svg>
