<svg width="28" height="28" viewBox="0 0 28 28" fill="none" xmlns="http://www.w3.org/2000/svg">
<path fill-rule="evenodd" clip-rule="evenodd" d="M6.125 10.8537V9.3335C6.125 7.24492 6.95468 5.24188 8.43153 3.76503C9.90838 2.28818 11.9114 1.4585 14 1.4585C16.0886 1.4585 18.0916 2.28818 19.5685 3.76503C21.0453 5.24188 21.875 7.24492 21.875 9.3335V10.8537C22.1398 10.8723 22.3883 10.8957 22.624 10.9283C23.674 11.0683 24.5583 11.3717 25.2607 12.0728C25.963 12.7752 26.264 13.6595 26.4063 14.7095C26.5417 15.721 26.5417 17.0078 26.5417 18.6027V18.731C26.5417 20.3258 26.5417 21.6127 26.4063 22.6242C26.264 23.6742 25.963 24.5585 25.2607 25.2608C24.5583 25.9632 23.674 26.2642 22.624 26.4065C21.6125 26.5418 20.3257 26.5418 18.7308 26.5418H9.26917C7.67433 26.5418 6.3875 26.5418 5.376 26.4065C4.326 26.2642 3.44167 25.9632 2.73933 25.2608C2.037 24.5585 1.736 23.6742 1.59483 22.6242C1.45833 21.6127 1.45833 20.3258 1.45833 18.731V18.6027C1.45833 17.0078 1.45833 15.721 1.59483 14.7095C1.73483 13.6595 2.03817 12.7752 2.73933 12.0728C3.44167 11.3705 4.326 11.0695 5.376 10.9283C5.62475 10.895 5.87456 10.8701 6.125 10.8537ZM7.875 9.3335C7.875 7.70905 8.52031 6.15113 9.66897 5.00247C10.8176 3.85381 12.3755 3.2085 14 3.2085C15.6245 3.2085 17.1824 3.85381 18.331 5.00247C19.4797 6.15113 20.125 7.70905 20.125 9.3335V10.7953C19.6898 10.7918 19.2243 10.7918 18.7308 10.7918H9.26917C8.77567 10.7918 8.31133 10.7918 7.875 10.7953V9.3335ZM3.97717 13.3107C4.30033 12.9875 4.753 12.7775 5.6105 12.662C6.49017 12.5442 7.65917 12.5418 9.33333 12.5418H18.6667C20.3408 12.5418 21.5087 12.5442 22.3907 12.662C23.247 12.7775 23.6997 12.9887 24.0228 13.3107C24.346 13.6338 24.556 14.0865 24.6715 14.944C24.7893 15.8248 24.7917 16.9927 24.7917 18.6668C24.7917 20.341 24.7893 21.5088 24.6715 22.3908C24.556 23.2472 24.3448 23.6998 24.0228 24.023C23.6997 24.3462 23.247 24.5562 22.3895 24.6717C21.5087 24.7895 20.3408 24.7918 18.6667 24.7918H9.33333C7.65917 24.7918 6.49017 24.7895 5.60933 24.6717C4.753 24.5562 4.30033 24.345 3.97717 24.023C3.654 23.6998 3.444 23.2472 3.3285 22.3897C3.21067 21.5088 3.20833 20.341 3.20833 18.6668C3.20833 16.9927 3.21067 15.8237 3.3285 14.9428C3.444 14.0865 3.65517 13.6338 3.97717 13.3107Z" fill="#7E6EE0"/>
</svg>
