<svg width="28" height="28" viewBox="0 0 28 28" fill="none" xmlns="http://www.w3.org/2000/svg">
<path d="M23.7344 20.0157H21.8121C21.6809 20.0157 21.5578 20.0731 21.4758 20.1743C21.2844 20.4067 21.0793 20.6309 20.8633 20.8442C19.9798 21.7286 18.9333 22.4333 17.7816 22.9196C16.5885 23.4235 15.3061 23.682 14.0109 23.6797C12.7012 23.6797 11.4324 23.4227 10.2402 22.9196C9.08859 22.4333 8.04209 21.7286 7.15859 20.8442C6.27352 19.9628 5.56778 18.9181 5.08047 17.768C4.57461 16.5758 4.32031 15.3098 4.32031 14C4.32031 12.6903 4.57734 11.4243 5.08047 10.2321C5.56719 9.0809 6.26719 8.04457 7.15859 7.1559C8.05 6.26723 9.08633 5.56723 10.2402 5.08051C11.4324 4.57739 12.7012 4.32035 14.0109 4.32035C15.3207 4.32035 16.5894 4.57465 17.7816 5.08051C18.9355 5.56723 19.9719 6.26723 20.8633 7.1559C21.0793 7.37192 21.2816 7.59614 21.4758 7.82582C21.5578 7.92699 21.6836 7.98442 21.8121 7.98442H23.7344C23.9066 7.98442 24.0133 7.79301 23.9176 7.64809C21.8203 4.38871 18.1508 2.23129 13.9809 2.24223C7.42929 2.25864 2.17656 7.577 2.24219 14.1204C2.30781 20.5598 7.55234 25.7579 14.0109 25.7579C18.1699 25.7579 21.823 23.6032 23.9176 20.352C24.0105 20.2071 23.9066 20.0157 23.7344 20.0157ZM26.1652 13.8278L22.2852 10.7653C22.1402 10.6504 21.9297 10.7543 21.9297 10.9375V13.0157H13.3437C13.2234 13.0157 13.125 13.1141 13.125 13.2344V14.7657C13.125 14.886 13.2234 14.9844 13.3437 14.9844H21.9297V17.0625C21.9297 17.2457 22.143 17.3497 22.2852 17.2348L26.1652 14.1723C26.1914 14.1518 26.2125 14.1257 26.2271 14.0959C26.2416 14.066 26.2492 14.0332 26.2492 14C26.2492 13.9668 26.2416 13.9341 26.2271 13.9042C26.2125 13.8744 26.1914 13.8482 26.1652 13.8278Z" fill="#7E6EE0"/>
</svg>
