<svg width="29" height="40" viewBox="0 0 29 40" fill="none" xmlns="http://www.w3.org/2000/svg">
<g clip-path="url(#clip0_835_2586)">
<path fill-rule="evenodd" clip-rule="evenodd" d="M11.2998 23.973L23.1151 21.9355L28.0861 33.5746L21.9386 33.5043L16.8872 37.6082L11.2998 23.973Z" fill="#D0401B"/>
<path fill-rule="evenodd" clip-rule="evenodd" d="M18.0946 22.6841L5.42745 23.02L0 35.9481L6.14752 35.8771L11.1989 39.981L18.0946 22.6841Z" fill="#FF6600"/>
<path fill-rule="evenodd" clip-rule="evenodd" d="M14.295 0.0221214C15.0244 -0.00912865 15.5994 0.245559 16.1791 0.61509C16.9155 1.08228 17.744 2.00572 18.7668 2.59165C20.2062 3.41509 22.8711 2.27915 24.2364 4.30962C25.0329 5.494 25.0703 6.42212 25.1296 7.33931C25.1936 8.32915 25.3668 9.23931 26.3779 10.5792C28.0528 12.7963 28.4015 14.2721 27.5387 15.8104C26.9505 16.8588 25.7124 17.4417 25.4253 18.1057C24.816 19.519 25.4901 20.5838 24.6553 22.2315C24.0757 23.3737 23.1816 24.1268 21.9903 24.5112C20.9855 24.8346 19.9776 24.3667 19.174 24.7049C17.7604 25.2995 16.7181 26.6815 15.594 27.0307C15.1594 27.1659 14.7272 27.2323 14.295 27.2292C13.8636 27.2323 13.4306 27.1659 12.9969 27.0307C11.8719 26.6815 10.8296 25.2995 9.41601 24.7049C8.61246 24.3667 7.60452 24.8346 6.5997 24.5112C5.4092 24.1268 4.51438 23.3737 3.93473 22.2315C3.09998 20.5838 3.77402 19.519 3.16473 18.1057C2.87764 17.4417 1.63956 16.8588 1.05133 15.8104C0.188493 14.2721 0.537997 12.7963 2.21218 10.5792C3.22324 9.23931 3.39644 8.32915 3.46041 7.33931C3.5197 6.42212 3.55715 5.494 4.35367 4.30962C5.71892 2.27915 8.38388 3.41509 9.82324 2.59165C10.8468 2.00572 11.6745 1.08228 12.411 0.61509C12.9914 0.245559 13.5664 -0.00912865 14.295 0.0221214Z" fill="#F5C800"/>
<path fill-rule="evenodd" clip-rule="evenodd" d="M14.2951 0.0222387C15.0245 -0.00979258 15.5987 0.245676 16.1791 0.614426C16.9156 1.08161 17.7441 2.00505 18.7668 2.59099C19.9113 3.24568 21.8312 2.66208 23.2558 3.41599L7.17548 24.6207C6.98434 24.6051 6.79165 24.5722 6.59973 24.5105C5.40846 24.1262 4.51441 23.3738 3.93477 22.2308C3.10002 20.5832 3.77406 19.5183 3.16477 18.1051C2.87768 17.441 1.63959 16.8582 1.05136 15.8097C0.188527 14.2715 0.53803 12.7957 2.21144 10.5785C3.22328 9.23943 3.39647 8.32849 3.46044 7.33865C3.51973 6.42146 3.55718 5.49333 4.35293 4.30896C5.71895 2.27771 8.3847 3.41443 9.82328 2.59099C10.8468 2.00505 11.6753 1.08161 12.411 0.614426C12.9914 0.245676 13.5664 -0.00979258 14.2951 0.0222387Z" fill="#FFDD61"/>
<path d="M14.2509 23.9955C19.8538 23.9955 24.3959 19.447 24.3959 13.8361C24.3959 8.22527 19.8538 3.67676 14.2509 3.67676C8.64801 3.67676 4.10596 8.22527 4.10596 13.8361C4.10596 19.447 8.64801 23.9955 14.2509 23.9955Z" fill="#E37E00"/>
<path fill-rule="evenodd" clip-rule="evenodd" d="M14.2531 5.71533C18.7319 5.71533 22.3619 9.35127 22.3619 13.8364C22.3619 18.3216 18.7319 21.9575 14.2531 21.9575C9.77434 21.9575 6.14355 18.3216 6.14355 13.8364C6.14355 9.35127 9.77434 5.71533 14.2531 5.71533Z" fill="#F5C800"/>
<path fill-rule="evenodd" clip-rule="evenodd" d="M14.2531 5.71533C16.397 5.71533 18.3481 6.54893 19.7976 7.90986L9.85547 20.6599C9.49504 20.4271 9.15412 20.1653 8.83582 19.8794C7.18348 18.3935 6.14355 16.2364 6.14355 13.8364C6.14355 9.35127 9.77434 5.71533 14.2531 5.71533Z" fill="#FFDD61"/>
<path d="M14.4931 9.08842L15.7655 12.072L18.9921 12.3619C19.1349 12.3744 19.2402 12.5001 19.2277 12.6423C19.2223 12.7119 19.1895 12.7728 19.1404 12.815L16.6993 14.9501L17.4217 18.1142C17.4537 18.254 17.3663 18.3931 17.2267 18.4251C17.1549 18.4415 17.0839 18.4267 17.027 18.39L14.2536 16.729L11.4716 18.3947C11.3491 18.4681 11.1899 18.4283 11.1166 18.3056C11.0807 18.2454 11.0721 18.1775 11.0862 18.1142L11.8086 14.9501L9.36675 12.815C9.2591 12.7212 9.24817 12.5572 9.34257 12.4494C9.39016 12.3947 9.45647 12.365 9.52356 12.3611L12.7424 12.072L14.0156 9.08686C14.0718 8.95482 14.2239 8.89389 14.355 8.95014C14.4205 8.97748 14.4681 9.02826 14.4931 9.08842Z" fill="#E37E00"/>
</g>
<defs>
<clipPath id="clip0_835_2586">
<rect width="28.0851" height="40" fill="white"/>
</clipPath>
</defs>
</svg>
