<svg width="28" height="28" viewBox="0 0 28 28" fill="none" xmlns="http://www.w3.org/2000/svg">
<path d="M26.1625 10.6409C26.0565 10.3143 25.8568 10.026 25.5882 9.81211C25.3197 9.59818 24.9941 9.46799 24.652 9.43775L18.1562 8.87775L15.61 2.82275C15.4774 2.50503 15.2538 2.23364 14.9673 2.04275C14.6808 1.85186 14.3443 1.75 14 1.75C13.6557 1.75 13.3192 1.85186 13.0327 2.04275C12.7462 2.23364 12.5226 2.50503 12.39 2.82275L9.85141 8.87775L3.34797 9.44103C3.00457 9.46989 2.67733 9.59949 2.4073 9.81358C2.13726 10.0277 1.93645 10.3167 1.83003 10.6445C1.72362 10.9723 1.71634 11.3242 1.80912 11.656C1.9019 11.9879 2.0906 12.285 2.35156 12.5101L7.28547 16.8217L5.80672 23.2245C5.72853 23.5595 5.75084 23.9102 5.87086 24.2327C5.99089 24.5551 6.20331 24.835 6.48156 25.0374C6.7598 25.2398 7.09154 25.3557 7.43528 25.3705C7.77903 25.3854 8.11953 25.2986 8.41422 25.121L13.9923 21.7304L19.5825 25.121C19.8772 25.2986 20.2177 25.3854 20.5614 25.3705C20.9052 25.3557 21.2369 25.2398 21.5152 25.0374C21.7934 24.835 22.0058 24.5551 22.1259 24.2327C22.2459 23.9102 22.2682 23.5595 22.19 23.2245L20.7123 16.8151L25.6452 12.5101C25.9061 12.2842 26.0944 11.9863 26.1865 11.6537C26.2785 11.3211 26.2702 10.9687 26.1625 10.6409ZM24.4978 11.1878L19.565 15.4927C19.3249 15.7016 19.1463 15.9719 19.0484 16.2747C18.9505 16.5774 18.937 16.9012 19.0094 17.211L20.4914 23.6248L14.9056 20.2342C14.6331 20.0682 14.3202 19.9804 14.0011 19.9804C13.682 19.9804 13.3691 20.0682 13.0966 20.2342L7.51844 23.6248L8.99062 17.2154C9.06298 16.9055 9.04947 16.5818 8.95157 16.2791C8.85367 15.9763 8.67508 15.706 8.435 15.4971L3.5 11.1943C3.4996 11.191 3.4996 11.1877 3.5 11.1845L10.0013 10.6223C10.3187 10.5943 10.6224 10.4802 10.8797 10.2923C11.137 10.1043 11.3382 9.84972 11.4614 9.55588L14 3.50853L16.5375 9.55588C16.6607 9.84972 16.8619 10.1043 17.1192 10.2923C17.3765 10.4802 17.6802 10.5943 17.9977 10.6223L24.5 11.1845V11.1921L24.4978 11.1878Z" fill="#7E6EE0"/>
</svg>
