<svg width="24" height="24" viewBox="0 0 24 24" fill="none" xmlns="http://www.w3.org/2000/svg">
<rect x="7.375" y="20.0859" width="8.66181" height="1.91474" fill="#1D4184"/>
<path d="M18.5543 3.8911H16.61V2H6.88858V3.8911H4.94429C3.87493 3.8911 3 4.7421 3 5.78221V6.72776C3 9.13892 4.86652 11.1057 7.26772 11.3988C7.88017 12.8171 9.19257 13.8856 10.7772 14.1976V17.1288H6.88858V19.0199H16.61V17.1288H12.7215V14.1976C14.3061 13.8856 15.6184 12.8171 16.2309 11.3988C18.6321 11.1057 20.4986 9.13892 20.4986 6.72776V5.78221C20.4986 4.7421 19.6237 3.8911 18.5543 3.8911ZM4.94429 6.72776V5.78221H6.88858V9.39422C5.76089 8.99708 4.94429 7.95698 4.94429 6.72776ZM11.7493 12.4011C10.1453 12.4011 8.83287 11.1246 8.83287 9.56441V3.8911H14.6657V9.56441C14.6657 11.1246 13.3533 12.4011 11.7493 12.4011ZM18.5543 6.72776C18.5543 7.95698 17.7377 8.99708 16.61 9.39422V5.78221H18.5543V6.72776Z" fill="#1D4184"/>
</svg>
