<svg width="32" height="32" viewBox="0 0 32 32" fill="none" xmlns="http://www.w3.org/2000/svg">
<path d="M26 7H24V6C23.9995 5.46973 23.7886 4.96133 23.4136 4.58637C23.0387 4.21141 22.5303 4.00053 22 4H10C9.46973 4.00053 8.96133 4.21141 8.58637 4.58637C8.21141 4.96133 8.00053 5.46973 8 6V7H6C5.46973 7.00053 4.96133 7.21141 4.58637 7.58637C4.21141 7.96133 4.00053 8.46973 4 9V12C4.00132 13.0605 4.42318 14.0771 5.17303 14.827C5.92289 15.5768 6.93954 15.9987 8 16H8.322C8.73871 17.5307 9.5921 18.907 10.778 19.9607C11.9639 21.0145 13.4309 21.7002 15 21.934V26H10V28H22V26H17V21.931C18.5895 21.7345 20.0828 21.0635 21.2851 20.0055C22.4875 18.9474 23.343 17.5516 23.74 16H24C25.0605 15.9987 26.0771 15.5768 26.827 14.827C27.5768 14.0771 27.9987 13.0605 28 12V9C27.9995 8.46973 27.7886 7.96133 27.4136 7.58637C27.0387 7.21141 26.5303 7.00053 26 7ZM8 14C7.46973 13.9995 6.96133 13.7886 6.58637 13.4136C6.21141 13.0387 6.00053 12.5303 6 12V9H8V14ZM22 14C22 14.8035 21.8386 15.5988 21.5254 16.3387C21.2122 17.0787 20.7535 17.7481 20.1767 18.3075C19.5998 18.8668 18.9165 19.3045 18.1673 19.5948C17.418 19.885 16.6181 20.0218 15.815 19.997C14.2226 19.8981 12.7296 19.1892 11.6466 18.0177C10.5635 16.8462 9.97377 15.3022 10 13.707V6H22V14ZM26 12C25.9995 12.5303 25.7886 13.0387 25.4136 13.4136C25.0387 13.7886 24.5303 13.9995 24 14V9H26V12Z" fill="black" fill-opacity="0.4"/>
</svg>
