<svg width="32" height="32" viewBox="0 0 32 32" fill="none" xmlns="http://www.w3.org/2000/svg">
<path d="M7.52 6V8.54667H3V11.04C3 15.2133 4.24 17.54 7.22 18.9867C8.32786 19.5823 9.3504 20.3246 10.26 21.1933C10.9911 21.9732 11.8827 22.585 12.8733 22.9867L14 23.3333V26.3533H12.28C10.2 26.3533 9.5 26.8267 9.5 28.2333V29.18H22.5V28.3333C22.5 26.9533 21.6467 26.3333 19.6733 26.3333H18V23.3333L19.1467 22.9933C20.1387 22.5913 21.0307 21.9769 21.76 21.1933C22.7089 20.2889 23.7711 19.5113 24.92 18.88C25.8121 18.4507 26.6087 17.8465 27.2627 17.1032C27.9166 16.3599 28.4145 15.4928 28.7267 14.5533C28.9389 13.3901 29.0371 12.209 29.02 11.0267V8.55333H24.48V6H7.52ZM16 10.2467L17.3667 13.0733H20.66L18.08 15.4533L18.82 18.4933L16 16.98L13.18 18.5133L13.92 15.4733L11.3333 13.0933H14.6333L16 10.2467ZM5.37333 11.0933H7.48V16.3467C7.26 16.48 6.57333 15.68 6.07333 14.7667C5.78947 14.0674 5.60761 13.331 5.53333 12.58L5.37333 11.0933ZM24.52 11.0933H26.8133L26.62 12.56C26.5746 13.7809 26.0837 14.943 25.24 15.8267C25.0415 16.0971 24.7897 16.324 24.5 16.4933L24.52 11.0933Z" stroke="#1D4184" stroke-linecap="round" stroke-linejoin="round"/>
</svg>
