<svg width="24" height="24" viewBox="0 0 24 24" fill="none" xmlns="http://www.w3.org/2000/svg">
<path d="M2.75 6C2.75 5.80109 2.67098 5.61032 2.53033 5.46967C2.38968 5.32902 2.19891 5.25 2 5.25C1.80109 5.25 1.61032 5.32902 1.46967 5.46967C1.32902 5.61032 1.25 5.80109 1.25 6V18C1.25 18.1989 1.32902 18.3897 1.46967 18.5303C1.61032 18.671 1.80109 18.75 2 18.75C2.19891 18.75 2.38968 18.671 2.53033 18.5303C2.67098 18.3897 2.75 18.1989 2.75 18V16.75H21.142V18C21.142 18.1989 21.221 18.3897 21.3617 18.5303C21.5023 18.671 21.6931 18.75 21.892 18.75C22.0909 18.75 22.2817 18.671 22.4223 18.5303C22.563 18.3897 22.642 18.1989 22.642 18V15.643C22.642 13.648 22.642 12.651 22.362 11.849C22.1139 11.14 21.7093 10.496 21.1781 9.96488C20.647 9.43374 20.003 9.02909 19.294 8.781C18.492 8.501 17.494 8.501 15.5 8.501H15.498C14.7 8.501 13.66 8.501 13.339 8.612C13.0555 8.71124 12.7979 8.87308 12.5855 9.0855C12.3731 9.29792 12.2112 9.55546 12.112 9.839C12 10.16 12 10.56 12 11.357V15.25H2.75V6Z" fill="#1D4184"/>
<path d="M7 13.5C7.66304 13.5 8.29893 13.2366 8.76777 12.7678C9.23661 12.2989 9.5 11.663 9.5 11C9.5 10.337 9.23661 9.70107 8.76777 9.23223C8.29893 8.76339 7.66304 8.5 7 8.5C6.33696 8.5 5.70107 8.76339 5.23223 9.23223C4.76339 9.70107 4.5 10.337 4.5 11C4.5 11.663 4.76339 12.2989 5.23223 12.7678C5.70107 13.2366 6.33696 13.5 7 13.5Z" fill="#1D4184"/>
</svg>
