<svg width="37" height="36" viewBox="0 0 37 36" fill="none" xmlns="http://www.w3.org/2000/svg">
<path d="M30.4004 16.9322L25.5715 21.3061L27.018 27.8179C27.0946 28.1584 27.0727 28.5147 26.9552 28.8423C26.8377 29.1699 26.6298 29.4543 26.3574 29.6599C26.085 29.8655 25.7603 29.9832 25.4237 29.9983C25.0872 30.0134 24.7539 29.9253 24.4654 29.7448L18.993 26.3L13.5324 29.7448C13.2439 29.9253 12.9106 30.0134 12.5741 29.9983C12.2376 29.9832 11.9129 29.8655 11.6405 29.6599C11.3681 29.4543 11.1601 29.1699 11.0426 28.8423C10.9251 28.5147 10.9033 28.1584 10.9799 27.8179L12.4242 21.3127L7.59427 16.9322C7.33881 16.7035 7.15408 16.4017 7.06326 16.0645C6.97243 15.7273 6.97955 15.3698 7.08372 15.0368C7.1879 14.7037 7.38448 14.4101 7.64883 14.1926C7.91318 13.975 8.23352 13.8434 8.56968 13.814L14.9361 13.2418L17.4212 7.08991C17.551 6.76711 17.7699 6.49138 18.0504 6.29743C18.3308 6.10349 18.6603 6 18.9973 6C19.3343 6 19.6638 6.10349 19.9443 6.29743C20.2247 6.49138 20.4436 6.76711 20.5734 7.08991L23.066 13.2418L29.4303 13.814C29.7665 13.8434 30.0868 13.975 30.3512 14.1926C30.6155 14.4101 30.8121 14.7037 30.9163 15.0368C31.0204 15.3698 31.0276 15.7273 30.9367 16.0645C30.8459 16.4017 30.6612 16.7035 30.4057 16.9322H30.4004Z" fill="#1D4184"/>
</svg>
