<svg width="24" height="24" viewBox="0 0 24 24" fill="none" xmlns="http://www.w3.org/2000/svg">
<g clip-path="url(#clip0_7_7003)">
<path d="M11 2C11.2449 2.00003 11.4813 2.08996 11.6644 2.25272C11.8474 2.41547 11.9643 2.63975 11.993 2.883L12 3V5.25C11.9997 5.50488 11.9021 5.75003 11.7272 5.93537C11.5522 6.1207 11.313 6.23223 11.0586 6.24717C10.8042 6.26211 10.5536 6.17933 10.3582 6.01574C10.1627 5.85214 10.0371 5.6201 10.007 5.367L10 5.25V4H8C7.75507 4.00003 7.51866 4.08996 7.33563 4.25272C7.15259 4.41547 7.03566 4.63975 7.007 4.883L7 5V11H20C20.5046 10.9998 20.9906 11.1904 21.3605 11.5335C21.7305 11.8766 21.9572 12.3468 21.995 12.85L22 13V16C22 17.475 21.362 18.8 20.346 19.715L20.832 20.445C20.9747 20.6573 21.0306 20.9161 20.9883 21.1683C20.946 21.4206 20.8086 21.647 20.6045 21.8011C20.4003 21.9551 20.1449 22.0251 19.8908 21.9966C19.6366 21.9682 19.403 21.8434 19.238 21.648L19.168 21.555L18.618 20.732C18.1863 20.8795 17.7365 20.967 17.281 20.992L17 21H7C6.44925 21.0006 5.9022 20.91 5.381 20.732L4.832 21.555C4.69056 21.7675 4.47321 21.9179 4.22448 21.9753C3.97575 22.0327 3.71447 21.9929 3.49418 21.8639C3.2739 21.7349 3.11129 21.5265 3.03968 21.2815C2.96806 21.0365 2.99286 20.7733 3.109 20.546L3.168 20.446L3.654 19.716C3.16524 19.2767 2.76812 18.7452 2.48547 18.1519C2.20282 17.5586 2.04021 16.9153 2.007 16.259L2 16V13C1.99984 12.4954 2.19041 12.0094 2.5335 11.6395C2.87659 11.2695 3.34684 11.0428 3.85 11.005L4 11H5V5C4.99996 4.23479 5.29233 3.49849 5.81728 2.94174C6.34224 2.38499 7.06011 2.04989 7.824 2.005L8 2H11Z" fill="#1D4184"/>
</g>
<defs>
<clipPath id="clip0_7_7003">
<rect width="24" height="24" fill="white"/>
</clipPath>
</defs>
</svg>
