<svg width="24" height="24" viewBox="0 0 24 24" fill="none" xmlns="http://www.w3.org/2000/svg">
<path d="M5.65755 2H2.97231C2.43615 2 2 2.51761 2 3.1539V6.34065C2 6.97694 2.43615 7.49455 2.97231 7.49455H5.65755C6.19371 7.49455 6.62986 6.97694 6.62986 6.34065V3.1539C6.62986 2.51761 6.19371 2 5.65755 2ZM5.79645 6.34065C5.79645 6.43164 5.73422 6.50549 5.65755 6.50549H2.97231C2.89564 6.50549 2.83341 6.43164 2.83341 6.34065V3.1539C2.83341 3.06291 2.89564 2.98906 2.97231 2.98906H5.65755C5.73422 2.98906 5.79645 3.06291 5.79645 3.1539V6.34065Z" fill="#1D4184"/>
<path d="M21.0263 2H8.89516C8.359 2 7.92285 2.51761 7.92285 3.1539V6.34065C7.92285 6.97694 8.359 7.49455 8.89516 7.49455H21.0257C21.5619 7.49455 21.998 6.97694 21.998 6.34065V3.1539C21.9986 2.51761 21.5624 2 21.0263 2ZM21.1646 6.34065C21.1646 6.43164 21.1029 6.50549 21.0257 6.50549H8.89516C8.81849 6.50549 8.75626 6.43164 8.75626 6.34065V3.1539C8.75626 3.06291 8.81849 2.98906 8.89516 2.98906H21.0257C21.1029 2.98906 21.1646 3.06291 21.1646 3.1539V6.34065Z" fill="#1D4184"/>
<path d="M21.0263 9.25342H8.89516C8.359 9.25342 7.92285 9.77103 7.92285 10.4073V13.5941C7.92285 14.2304 8.359 14.748 8.89516 14.748H21.0257C21.5619 14.748 21.998 14.2304 21.998 13.5941V10.4073C21.9986 9.77103 21.5624 9.25342 21.0263 9.25342ZM21.1646 13.5941C21.1646 13.6857 21.1029 13.7589 21.0257 13.7589H8.89516C8.81849 13.7589 8.75626 13.6857 8.75626 13.5941V10.4073C8.75626 10.3163 8.81849 10.2425 8.89516 10.2425H21.0257C21.1029 10.2425 21.1646 10.3163 21.1646 10.4073V13.5941Z" fill="#1D4184"/>
<path d="M21.0263 16.5044H8.89516C8.359 16.5044 7.92285 17.022 7.92285 17.6583V20.845C7.92285 21.4813 8.359 21.9989 8.89516 21.9989H21.0257C21.5619 21.9989 21.998 21.4813 21.998 20.845V17.6583C21.9986 17.022 21.5624 16.5044 21.0263 16.5044ZM21.1646 20.845C21.1646 20.9367 21.1029 21.0099 21.0257 21.0099H8.89516C8.81849 21.0099 8.75626 20.9367 8.75626 20.845V17.6583C8.75626 17.5673 8.81849 17.4935 8.89516 17.4935H21.0257C21.1029 17.4935 21.1646 17.5673 21.1646 17.6583V20.845Z" fill="#1D4184"/>
<path d="M5.65755 9.25342H2.97231C2.43615 9.25342 2 9.77103 2 10.4073V13.5941C2 14.2304 2.43615 14.748 2.97231 14.748H5.65755C6.19371 14.748 6.62986 14.2304 6.62986 13.5941V10.4073C6.62986 9.77103 6.19371 9.25342 5.65755 9.25342ZM5.79645 13.5941C5.79645 13.6857 5.73422 13.7589 5.65755 13.7589H2.97231C2.89564 13.7589 2.83341 13.6857 2.83341 13.5941V10.4073C2.83341 10.3163 2.89564 10.2425 2.97231 10.2425H5.65755C5.73422 10.2425 5.79645 10.3163 5.79645 10.4073V13.5941Z" fill="#1D4184"/>
<path d="M5.65755 16.5044H2.97231C2.43615 16.5044 2 17.022 2 17.6583V20.845C2 21.4813 2.43615 21.9989 2.97231 21.9989H5.65755C6.19371 21.9989 6.62986 21.4813 6.62986 20.845V17.6583C6.62986 17.022 6.19371 16.5044 5.65755 16.5044ZM5.79645 20.845C5.79645 20.9367 5.73422 21.0099 5.65755 21.0099H2.97231C2.89564 21.0099 2.83341 20.9367 2.83341 20.845V17.6583C2.83341 17.5673 2.89564 17.4935 2.97231 17.4935H5.65755C5.73422 17.4935 5.79645 17.5673 5.79645 17.6583V20.845Z" fill="#1D4184"/>
</svg>
